<svg version="1" xmlns="http://www.w3.org/2000/svg" width="2730.667" height="2730.667" viewBox="0 0 2048.000000 2048.000000"><path d="M942 453.5c0 .8.9 1.5 2 1.5s2-.7 2-1.5-.9-1.5-2-1.5-2 .7-2 1.5zM919.3 463.7c-.7.2-1.3 1.3-1.3 2.4 0 1.5.7 1.9 3.4 1.9 3.3 0 5.3-2 4-4.1-.5-.9-4-1.1-6.1-.2zM893 477.5c-1.1 1.3-.9 1.9.7 3.8 1.1 1.2 2.3 3 2.6 3.9.8 2.3 3 2.3 5 0 2.2-2.5 2.1-4.8-.3-7.2-2.4-2.4-6.3-2.6-8-.5zM923 483.6c-1.7 2-.2 4.8 2.9 5.2 2.7.4 2.9-2.8.2-5.2-1.7-1.5-1.9-1.5-3.1 0zM898.8 504.7c-2.8 1.8-3.6 3.7-1.9 4.7 1.6 1 9.2-2.7 8.9-4.3-.4-2.2-3.8-2.4-7-.4zM1060.2 511.2c-.5.7-1.3 5.3-1.6 10.3-1.2 16.2-1.5 17.5-3.9 17.6h-2.2l2.3.9c2.8 1.2 2.9 4.6.1 6.1-1.6.8-1.8 1.4-.9 2.2.8.9 1.4.8 2.1-.6 1-1.8 5.9-2.4 5.9-.7 0 .5-1.1 2.5-2.4 4.4-1.3 1.9-2.6 5.3-3 7.5-.5 3.2-1.1 4.1-2.6 4.1-1.7 0-2 .6-1.8 4.7.1 2.7.1 15.6-.1 28.8-.1 13.2 0 32.4.2 42.7.3 15.4.1 19.1-1.1 20.9-1.9 2.8-.3 4.3 3.6 3.4 2.1-.4 3.2-1.4 3.7-3.2.3-1.4 1.3-3.6 2.2-5 1.4-2.1 2.2-2.4 5.7-2 2.3.3 5.9 1 8.1 1.6 2.2.5 6.3 1.6 9 2.3 6.2 1.6 7.6 2.5 9.5 6.2 2.1 4.2 6.8 5.9 10.5 4 1.6-.8 3.5-1.2 4.2-1 .7.3 1.3-.1 1.3-.9s.9-1.5 2-1.5c2.4 0 13 5.8 13 7.1 0 1.5 8.8 4.9 12.4 4.9 2.6 0 3.9.8 6.4 3.9 1.8 2.2 4.2 4.3 5.4 4.7 1.3.4 3.9 2 5.9 3.5 2 1.6 4.6 2.9 5.8 2.9 2.7 0 15.1 4.1 15.1 5 0 .4 2.8 1.8 6.2 3.1 4.3 1.7 6.6 3.3 7.9 5.4 1.2 2 4 4 7.9 5.8 3.3 1.5 6 3.2 6 3.7 0 1.3 7.5 9 8.8 9 2.6 0 9.1 5.8 11.1 9.8 1.7 3.4 2.5 4.2 3.9 3.7 5.2-2.1 5.5-2 4.8 1.8-.6 3.3-.4 3.8 3.4 6.8 3.4 2.7 4 3.8 4 6.9 0 3.7 2.1 6.7 3.9 5.6.5-.4.7-5.6.4-12.9-.4-6.7-.7-16-.7-20.7l-.1-8.5 7.7.4c6.1.2 8.1 0 9.3-1.3 2.2-2.1 13.2-2.2 18.3-.1 4.6 2 7.2 1.4 11.1-2.6 2.8-2.7 3.1-3.7 3.1-9 0-3.3-.4-5.9-1-5.9-1.9 0-1.1-5.9.9-7 1.1-.5 2.2-2.3 2.6-4 .4-1.6 1-3.2 1.4-3.4.7-.5 0-7.2-1.4-12.6-.6-2.3-.2-2.8 3.5-4.4 3.1-1.3 4.5-1.5 5.3-.7 2.1 2.1 9.4 1.3 12.1-1.3 1.5-1.3 2.6-2.5 2.6-2.8 0-.3-1.2-1.8-2.6-3.4-3.7-4.2-8.4-11.1-8.4-12.3 0-.6-.5-1.1-1-1.1-1.3 0-3 4.3-3 7.6 0 2.7-.6 2.9-4.5 1.4s-4.7-4.8-2.3-9c2.9-4.9 2.5-11.6-.8-14.6-2.9-2.8-3.1-5.7-.4-9.1 2.3-2.9 2.7-7.3.7-7.3-.8 0-1.9 1.1-2.5 2.5-1.4 3-3.8 3.3-4.7.5-.7-2.2-4.5-2.8-4.5-.7 0 .8-.9 2.2-1.9 3.1-1.1 1-2.3 3.2-2.7 5-1 4.4-4.9 7.9-7.5 6.6-1-.6-1.9-2-1.9-3.1 0-5.1-6.6-10.3-11.8-9.3-1.7.4-3.2.1-3.6-.5-.4-.6-1.9-1.1-3.3-1.1-2.1 0-2.4-.3-1.9-2.3.3-1.2.6-2.5.6-3 0-.4.7-.7 1.5-.7 1.2 0 1.3-.3.3-1.9-1-1.7-.8-2.3 1.3-3.9 1.3-1.1 2.1-2.3 1.7-2.7-.8-.8-6 1.8-7.7 3.9-1.4 1.6-7.1 2.3-7.1.8 0-.5.7-1.7 1.5-2.8 1.9-2.5 1.9-4 0-2.4-2.3 1.9-6.5-.3-6.5-3.4 0-2.8-2.2-4.9-4.7-4.4-2.7.5-2.8 4.3-.2 6.1 1.2.9 1.8 2 1.4 2.7-1.2 1.9-7.9.5-11.8-2.4-1.9-1.4-4.3-2.6-5.5-2.6-3 0-3.7-1.9-1.3-3.6 2.6-1.8 2.6-4.2.2-7.2-2.4-2.8-4.2-2.8-9.1.3-4.8 3-11.7 3.4-15 .7-1.9-1.6-2-2-.9-4.5 1-2.3 1.8-2.8 4.3-2.5 2.6.2 3.2-.1 3.4-2 .2-1.2-.2-2.2-.8-2.2-.6 0-1-1-.8-2.2.2-1.5 1.3-2.5 3.6-3.2 4-1.1 3.7-3-.6-3.4-2.7-.3-3.4.1-4.2 2.2-.7 2-1.6 2.6-4.1 2.6-2.1 0-4 1-6.1 3-3.1 3.2-5.8 3.9-5.8 1.7 0-.8-.9-2.2-2-3.2-1.8-1.6-2.3-1.7-4.6-.5-2.2 1.2-2.7 1.2-3.4 0-.6-.8-1-2.3-1-3.2 0-1.5-3.5-4.8-5.1-4.8-.4 0-2.1 1.1-3.7 2.5-3.6 3-6.1 2.4-6.9-1.6-.7-3.6-2.6-5.2-5.3-4.4-2.2.7-2.7 4.4-.8 6.3 1.6 1.6 1.1 1.8-5.4 2.6l-5.8.6-1.5-3.6c-2-4.9-1.9-5.2 1.3-5.6 3-.3 3.8-3.1 1-3.6-1.1-.2-1.8.3-1.8 1.2 0 .9-.7 1.6-1.5 1.6s-1.5-.7-1.5-1.5c0-2.8-3.3-3.5-6.8-1.3-2.8 1.7-3.8 1.9-5.9.9-1.8-.8-2.9-.9-3.7-.1-2 2-4.5 1.1-4.8-1.7-.4-3.4-6-6.7-10-5.9-2.2.4-2.8.2-2.8-1.2 0-1 .5-2.3 1.2-3 .9-.9.9-1.2 0-1.2-.7 0-1.2.4-1.2 1 0 2-3.1.9-4-1.4-1.3-3.6-5.1-5.7-8.7-5-2.2.4-3.2.2-3.6-1-.5-1.2-2-1.6-5.7-1.6-5 0-6.9-1.7-3-2.7 2.3-.6 2.6-2.8.7-4-.8-.4-1.7-2.6-2-4.7-.4-2.2-1.3-4.4-2.2-4.8-1-.6-1.5-2.4-1.5-5.1 0-5.6-2.4-8.3-4.8-5.5zM1079 548c0 1.3-2.9 3.2-4 2.5-1.4-.9-1.3-3.2.3-3.8 1.5-.5 3.7.2 3.7 1.3zm100.5 35.6c3.4 2.2 3.1 4-.6 4.8-1.6.3-3.7 1.3-4.6 2.1-2 2-5.7 1.5-6.1-.8-.3-1.3.3-1.7 2.7-1.7 2.8 0 3.1-.3 3.1-3 0-3.5 1.7-3.9 5.5-1.4zM1247 617c0 .5-.7 1-1.5 1s-1.5-.5-1.5-1c0-.6.7-1 1.5-1s1.5.4 1.5 1zM1118.7 512.7c-.4.3-.7 1.5-.7 2.5 0 2.8 3.4 1.9 3.8-1 .3-2.1-1.6-3.1-3.1-1.5zM943 516.4c-1.2 2.4-1.1 2.8 1.8 5.5 5.2 5.1 10.7 1 6.5-4.8-2.7-3.6-6.5-3.9-8.3-.7zM864.2 518.6c-2.8 1.9-2.8 4.1.1 6.5 2.9 2.4 4.1 2.4 7.2-.4l2.7-2.2-2.2-2.8c-2.4-3.1-4.6-3.4-7.8-1.1zM847.6 522.5c-.4 1.4-1.3 2.5-2.1 2.5-.7 0-1.6.8-2 1.8-.3 1.1-1.7 2.4-3 3-2.2 1-2.4 1.4-1.3 3.2 1 1.6 1 2.4.1 3.8-.7.9-2.3 3.8-3.7 6.4-2.3 4.2-2.4 4.8-1 6.2 2.5 2.6 6.3 1.9 9.5-1.7 1.6-1.7 4.3-4.7 5.9-6.5 1.7-1.8 3-3.9 3-4.7 0-.8.9-1.9 2-2.5 3.2-1.7 2.4-3.8-2-5-3.9-1-5.7-4-2.5-4 1.8 0 2-2.1.3-3.8-1.8-1.8-2.5-1.5-3.2 1.3zM922.3 522.4c-1.7 1.4-4.1 2.3-6 2.3-3.8 0-7.3 2.7-7.3 5.8 0 4.6 4.3 5.8 9 2.5 1.9-1.4 3.7-1.9 5.3-1.5 2.7.7 7.7-3 7.7-5.7 0-1.4-4-5.8-5.2-5.8-.4 0-1.9 1.1-3.5 2.4zM1038 522.9c-.8 1.6-1.8 1.9-6.7 1.5-3.2-.2-7-.6-8.5-1-2.4-.6-2.7-.3-3 2.7-.2 2.8-.7 3.4-2.8 3.5-1.4.1-3.1.2-3.7.3-1.7.1-3.8 4.5-5.3 10.8-.6 2.9-1.7 5.3-2.3 5.3-2.1 0-5.7-7.7-5.7-11.9 0-2.3-.4-4.1-1-4.1-.5 0-1 1.6-1 3.5 0 2.8-.4 3.6-2.2 3.9-7.4 1.5-7.8 1.7-7.8 3.6 0 2.9-1.9 3.4-4.1 1.1-2.1-2.3-6.5-2.1-10.6.5-2 1.3-2.3 2.3-2.3 8.7 0 4 .5 7.8 1.1 8.4.7.7 1.2 6.6 1.4 14.9.4 18.1 2.3 41 3.6 45.2.6 1.8.8 4.3.5 5.6-.8 3.2.3 3.9 3.3 2 4.5-2.8 35.4-34.7 40-41.2 2.4-3.4 4.7-6.2 5.2-6.2.4 0 4.5-3.6 9-8l8.3-7.9-.1-15.3c-.1-28.4-.1-27.8-2.3-27.8-1 0-2.4.9-3 1.9zm-31 33.7c0 4.6-1.3 8.4-3 8.4-.9 0-1.2-10.8-.3-12.3.2-.4 1.1-.7 1.9-.7 1 0 1.4 1.3 1.4 4.6zM879.2 525.2c-1.9 1.9-1.5 4.8.7 4.8 2.4 0 4.5-2.5 3.7-4.5-.7-1.8-2.7-2-4.4-.3zM1153.6 538.9c-1.2 1.9.7 4.1 3.4 4.1 3 0 5.6-2.3 4.5-4-.8-1.2-7.2-1.3-7.9-.1zM883 540.6c0 1.6 2.7 4.3 4.3 4.4 1.4 0 .7-3.3-1-4.6-2.4-1.8-3.3-1.7-3.3.2zM807.5 542c-1.7 1.8-1.7 2.1-.1 4.5.9 1.4 2.5 2.5 3.5 2.5 2.1 0 5.1-3 5.1-5.1 0-4-5.5-5.2-8.5-1.9z"/><path d="M960.7 541.6c-.3.5-.6 3.5-.6 6.7 0 3.1-.2 6.1-.6 6.6-.3.6-2.2 1.3-4.3 1.6-5.6 1-9.4 2.6-12.3 5.2-1.4 1.2-3.2 2.3-4 2.3-.7 0-3.4 1.2-5.8 2.6-4.6 2.6-7.1 2.6-7.1-.1 0-1.1-.6-1.4-2.3-1-1.6.4-2.9 0-4.1-1.4-2.4-2.6-10.1-2.9-13.5-.5-1.9 1.4-2.7 1.4-4.7.4-2.7-1.5-5.4 0-5.4 3.1 0 1.9 5.1 3.9 10.3 3.9 2 0 2.7.5 2.7 1.9 0 2.2-1.9 3.1-6.6 3.1-1.9 0-5.1.7-7.1 1.5-4.5 1.9-4.3 1.9-4.3-.8 0-1.3-1.1-3.4-2.5-4.7-3.4-3.2-5.8-1.8-6.5 3.6-.4 2.7-1.1 4-2.5 4.4-1.1.3-3.1 1.3-4.5 2.2-1.4.9-4.3 2.1-6.5 2.7-2.3.6-5.4 2.4-7 4.1-3.2 3.4-5 3.8-6.3 1.4-.9-1.5-1.2-1.5-4.1.2-1.7 1-3.1 2.1-3.1 2.5 0 .8-12.6 1.8-15.1 1.2-1.2-.3-1.9-1.4-1.9-2.9 0-2.6 1.1-3 4.2-1.3 4.1 2.2 8.8-2.4 7.3-7.2-.6-1.8-1.3-2-4.1-1.6-2.9.5-3.6.2-5.1-2.4-1.9-3.3-3.4-3.6-5.4-1.3-1 1.2-1 2-.1 3.5 1.6 2.4 1.5 5-.2 7.2-1.6 2.1-1 5.7 1 5.7.8 0 1.4 1 1.4 2.5 0 1.8-.5 2.5-2 2.5s-2-.7-2-2.5c0-2-.5-2.5-2.5-2.5-2.1 0-2.5-.5-2.6-3.3 0-2.9-.1-3-.9-1-.5 1.3-1.6 2.3-2.5 2.3-.8 0-1.5.7-1.5 1.5 0 1.8-4.3 2-6.2.2-.8-.6-2.2-1.7-3.3-2.3-3.3-1.8-2.8-3.3 2.5-8.2 4.5-4.2 5.1-5.2 4.4-7.3-.4-1.3-.8-2.7-.9-3.1 0-.4-.6-1.3-1.2-2-1.9-1.8-1.6-4.2.9-5.7l2.2-1.4-2.1-1.7c-1.5-1.2-2.1-2.7-2-5 .2-4-2.7-6.5-4.6-3.9-.7.9-2.1 1.8-3.2 2-1.2.3-2.1 1.4-2.3 2.8-.2 1.3-1.7 3.5-3.3 4.8-4.9 4.2-7.9 11.8-7.9 20.2 0 6.3.3 7.5 2.3 9.2 1.2 1 3 1.8 4 1.9.9 0 1.7.4 1.7 1 0 .5 1.1 1 2.5 1 1.5 0 2.5.6 2.5 1.4 0 2-3.5 2.9-5.9 1.6-1.1-.5-3.4-.9-5.2-.8-3.1.3-3.6-.1-5.9-5.2-1.2-2.6-4.9-2.4-5.9.2-.7 2-.5 2.4 2 3.1 3.9 1 3.8 3.7-.1 3.7-2 0-3-.5-3-1.5 0-2.5-3.8-1.7-8.6 2-5.2 4-7.8 4.4-9.4 1.5-1.2-2.3-3.5-2.5-9.4-.8-7 2-7.9 3.7-5.4 10.4 1 2.8.9 4-.8 7.6-1 2.4-3.2 6.2-4.8 8.5-1.6 2.3-3.2 5.9-3.5 8l-.6 3.8h-28.6l-4.7 5.2c-3.9 4.3-5.6 5.3-10 6.3-5.1 1.2-8.2 3.7-8.2 6.8 0 1.9 3.8 6.4 14.9 17.7 9.2 9.3 9.5 9.5 14 9.5 2.6 0 5.1.4 5.7.9.5.5 2.7 1.1 4.9 1.4 7.9 1.1 11 2 13.4 3.8 1.3 1.1 3.5 1.9 5 1.9 4.1 0 15.5 2.6 17.9 4.1 3.9 2.4 2.8 4.3-2 3.5-2.4-.4-8.1-1.1-12.8-1.6-4.7-.4-12.1-2.1-16.5-3.6-8.1-2.7-15-3.3-17-1.3-.7.7 0 2 2.5 4.2 2 1.8 4.1 4.5 4.8 6 1.5 3.5 1.5 3.7-.1 3.7-1.5 0-7.4-6-10.7-11-1.3-1.9-2.7-3.7-3-4-.3-.3-1.5-1.8-2.7-3.3-1.2-1.5-7.7-8.6-14.4-15.8-8.5-9-12.9-12.9-14.4-12.9-1.8 0-2.8 1.4-5.5 7.5-3 6.9-3.8 7.8-9 11-6.2 3.7-7 5.5-7 15 0 2.3-.4 4.5-.9 5-.6.6-1.1 3.5-1.3 6.5l-.3 5.5-4.1.1c-2.4 0-5.9 1.1-8.8 2.7-2.7 1.5-6.1 2.7-7.7 2.7-1.5 0-3.1.4-3.4 1-.8 1.3 1.3 9 2.5 9 .6 0 1 1.1 1 2.5 0 2.2-.4 2.5-3.2 2.3-2.7-.3-3.4.1-3.6 1.9-.2 1.4.4 2.7 1.7 3.5 4 2.4 1.8 7.2-4.9 10.7l-4 2-1.1-2c-.8-1.6-1.4-1.8-2.2-1-.8.8-.6 1.4.6 2.4 1 .7 2.3 2.3 3 3.7.7 1.3 2.6 2.7 4.4 3.2 3.9 1 4.7 2.2 3.3 4.8-1.2 2.3-4.8 2.7-5.6.5-.8-2.1-3.8-2.7-6.7-1.4-3.4 1.5-4.1 3.7-2.1 6 2.2 2.5 1 5.6-2.9 6.9-1.8.6-4.2 1.9-5.5 2.9-1.9 1.6-2.1 2.3-1.2 4.6.5 1.4 1 3.9 1 5.5 0 1.9.8 3.3 2.5 4.4 1.4.9 2.5 2.3 2.5 3.1 0 1.7-2.6 2-3.5.5-1.2-1.9-3.8-1-7.1 2.7-3.7 4-4.2 6.7-1.9 9.7.8 1.1 1.5 3 1.5 4.2 0 1.7-.8 2.3-3.5 2.8-3.5.7-6.5 4.1-4.8 5.6.4.4 2 1 3.5 1.4 2.2.5 3.1 0 5.6-3 3-3.6 5.2-3.8 5.2-.5 0 .9-.5 2.2-1.2 2.9-.8.8-.8 1.5.2 2.6 1.5 1.9.7 4.6-1.4 4.6-.7 0-2.7-.7-4.2-1.5-1.7-.8-5.6-1.5-9.1-1.5-5.7 0-6.3-.2-8.7-3.3-1.5-1.7-4.1-4.6-5.8-6.4-5.1-5.3-1.4-8.5 5.3-4.6 1.5.9 3.1 1.4 3.5 1 .6-.5-.6-2.2-5.6-8.4-1.3-1.6-1.3-4.3 0-4.3.6 0 1-1.1 1-2.5 0-1.8.5-2.5 2-2.5 1.1 0 2-.5 2-1 0-1.7 4.8-1.1 5.5.7.8 2.2-2.8 5.3-6.1 5.3-3.2 0-3 1.6.6 4.7 1.7 1.4 3.7 3.8 4.6 5.4 1.2 2.4 1.8 2.8 3.2 2 1.3-.8 1.7-2.4 1.8-7.8.1-12.8.3-14.3 1.9-14.3.8 0 2.4.5 3.5 1.2 2.4 1.5 4.1.1 1.8-1.6-1.1-.8-1.5-2-1.2-3.3.3-1.2 0-3.1-.6-4.3-.9-1.6-.9-2.5-.1-3.3 1.5-1.5 1.4-2.7-.4-2.7-.9 0-1.5.9-1.5 2.5 0 1.4-.5 2.5-1.2 2.5-.6 0-2.2 1-3.5 2.2l-2.3 2.2-2.9-3.5c-2.4-2.7-3.2-3.2-4.2-2.2-.7.7-1.9 1.3-2.6 1.3-2.1 0-1.5-2.3 1.5-5.8 3.2-3.8 3.8-3.9 4.5-1.1.7 2.8 5.2 2.3 5.2-.6 0-1.6-.8-2.1-3.7-2.3-2.9-.2-3.7-.8-4-2.5-.4-2.8-2.5-3.2-7.1-1.2-2.9 1.2-3.7 2.1-3.7 4 0 4.1-2.7 3-3.4-1.4-.3-2.1-1.3-4.4-2.1-5.1-.8-.7-1.5-1.8-1.5-2.6 0-1.3 3-2.7 5-2.2.6.2 1.7-.4 2.3-1.4 1.6-2.4-.8-4.8-4.8-4.8-2 0-3.5-.6-3.9-1.5-.8-2.1-8.4-2.1-9.3 0-.3.9.2 2.3 1 3.3 2.8 3.1 3.9 7.4 2.6 9.9-1.1 2-.9 2.5 1.4 4.4 3 2.3 3.5 5.4 1.2 6.3-1.7.6-2.1 3.6-.5 3.6.6 0 1.3-.7 1.6-1.5.7-1.8 5.4-2 5.4-.3 0 .6-.6 1.9-1.4 2.7-.8.9-1.8 2.8-2.1 4.3-.6 2.3-.2 3.3 2.4 5.7 4.2 3.9 4.1 6.6-.4 8.2-1.9.7-3.7 2.1-4.1 3.1-.3 1.1-1.5 1.8-2.9 1.8-1.7 0-2.9.9-4 3-1.9 3.7-1.9 5 .3 6.6 2.5 1.9 4 1.7 4.8-.9 1.1-3 1.1-3.3 1.3-6.3.1-2 .5-2.5 2.4-2.2 1.5.2 2.1.9 2 2.3-.5 4.2-2 12.1-2.7 13.6-.4.9-.1 2.1.9 2.9 2.9 2.4 1.8 4-2.7 4-2.4 0-5-.4-5.8-1-2.2-1.4-3 .8-2.3 6.9l.6 5.3-3.1-.7c-2.5-.5-3.3-.2-4.2 1.6-.9 1.7-.9 2.7.1 4.6 1 1.9 1 3.1.1 5.5-.9 2.6-.9 3.7.4 6.2.9 1.7 1.7 5.9 2 9.4.2 3.5 1.2 8.2 2.2 10.5 1.9 4.2 4.2 10.7 4.2 12 0 .4-.8.7-1.8.7-2.6 0-6.2 4.2-6.2 7.2 0 1.5-.6 2.8-1.2 3.1-1 .4-1 .7 0 1.8s1.2 1 1.2-.4c0-1 .8-1.7 2-1.7 2.1 0 2.9 3.3 1 4.5-.5.3-.1 1.4 1 2.5s2.1 3.2 2.2 4.7c.3 5.3.4 5.8 1.1 7.1.5.6 1.7 1.2 2.8 1.2 3.1 0 10.9 4.9 16 10.1 2.5 2.6 6.3 5.6 8.5 6.7 4.1 2.2 15.4 12.6 15.4 14.2 0 1.6-3 1.1-3.6-.5-.4-.8-1.1-1.5-1.8-1.5-.6 0-3.3-1.8-6.1-4-2.7-2.2-5.4-4-5.8-4-.4 0-3.2-1.8-6.1-4-2.9-2.2-6.1-4-7.2-4-1.1 0-2.5-.9-3.2-2-.7-1.1-1.8-2-2.6-2-.7 0-1.9-.6-2.5-1.4-1.4-1.7-12.8-8.6-14.2-8.6-.6 0-2.9-.9-5.1-2-5-2.4-7.1-2.5-8.8-.5-.7.8-2.1 1.5-3.2 1.5-1.6 0-1.9-.5-1.6-2.5.4-2.1.2-2.3-1.3-1.5-1 .6-2.7 1-3.8 1-2.2 0-3.5 2.8-2.5 5.4.8 2.2 2.5 2 3.1-.4.7-2.6 3-2.6 3.8 0 .9 2.9 4.3 4.4 6.9 3.2 1.1-.6 4-1.3 6.3-1.6 4.9-.7 7.7 1.3 8.9 6 .6 2.2.2 3.1-1.7 4.7l-2.4 1.9 2.8 2c1.5 1.1 2.7 2.6 2.7 3.4 0 1.7-3.1 1.9-4.7.3-1.7-1.7-3.9-.4-4.7 2.6-.6 2.5 1.4 8.6 4.5 13.5 2 3.2 2.2 4.3 1.1 6-1.1 1.8-.4 5.6 1.9 10.2.5 1 .6 4.5.2 7.8-.4 4.2-.2 6.8.7 8.5 1.2 2.2 1 2.8-1.4 6-2.6 3.4-2.9 6.5-.6 6.5 1.6 0 1.1 5.2-1 9.9-1.1 2.4-2 4.7-2 5.3 0 1.3 3.9-.1 6-2.2 2.3-2.3 11.3-9.1 21-16 4.3-3 10.5-8 13.8-11 3.3-3.1 9.4-8 13.6-10.9 4.2-2.9 8.8-6.4 10.1-7.7 1.3-1.3 2.9-2.4 3.5-2.4 2.7 0 0-3.7-5.4-7.4-6.1-4.2-8-6.6-5.2-6.6.9 0 1.6.4 1.6.8s2 1.4 4.4 2.1c2.5.7 6.1 2.1 8 3.2l3.6 1.9 4.8-4.3c2.7-2.3 5.9-4.9 7.2-5.7 1.3-.8 4-2.9 5.9-4.6 8.3-7.1 20.1-16.4 20.8-16.4.4 0 2.8-1.6 5.2-3.5 2.4-1.9 4.7-3.5 5.1-3.5.5 0 2.1-1.1 3.6-2.4 1.6-1.3 5.4-4.4 8.4-6.8l5.5-4.4.1-7.5c0-4.1.6-10.1 1.3-13.4.7-3.3 1.5-7 1.7-8.3.3-1.2 1.6-2.7 2.9-3.2 2.5-.9 2.9-1.8 2.5-5.3-.1-1 1.7-3.8 3.9-6.2 2.3-2.5 4.1-5.4 4.1-6.5 0-1.2 1.1-3.2 2.5-4.6 1.4-1.4 2.5-3 2.5-3.6 0-.5 1.1-2.3 2.5-4 1.4-1.6 2.5-3.5 2.5-4.1 0-.7 1-1.7 2.2-2.2 1.3-.6 2.4-1.9 2.6-3 .2-1.1 1.1-2.7 1.8-3.6.8-.9 1.7-3.3 2.1-5.3.6-3.5.6-3.6 5.2-3.3l4.6.2-.2-6.3c-.2-5.5.1-6.7 2.1-8.9 1.3-1.4 3-3.7 3.8-5.2.7-1.4 2.3-3.4 3.4-4.3 1.2-1 2.7-3.2 3.5-5 2.9-7.3 8-11.8 13.2-11.8 1.3 0 3.4-1.1 4.7-2.5 2.8-3 6.3-3.2 9-.5 1.1 1.1 2.4 2 2.8 2 1.5 0 5.2-4.6 5.2-6.3 0-1-3.1-4.9-7-8.7-3.8-3.8-8.4-9.2-10.1-12-1.7-2.7-3.9-5.6-4.8-6.3-1-.6-2.3-2.1-2.9-3.2-.6-1.1-3.2-2.8-5.9-3.8-2.6-1-7.3-2.9-10.3-4.2-3-1.3-9.3-3.6-14-5.1-4.7-1.5-10.1-3.5-12-4.5-1.9-1-5.4-2.3-7.7-3-3.1-.9-4.3-1.7-4.3-3.1 0-1.7.5-1.9 3.3-1.3 1.7.4 5.2 1.6 7.7 2.7 4.3 2 7.9 3 16.5 4.7 2.2.5 5.9 1.5 8.3 2.3 5.1 1.9 5.9 1.1 2.7-2.8-5-5.9-8.5-10.7-8.5-11.5 0-1.7 3.1-.9 4.8 1.3.9 1.2 3.2 3.6 5 5.3 13.4 12.2 19.6 18.4 21 21.1.9 1.8 5.2 6.9 9.4 11.5s8.6 9.6 9.8 11.1c2.5 3.3 4.6 3.5 8 .9 2.3-1.8 2.4-2.2 1.2-5.3-1.8-5-1.5-7.5.8-8.1 2-.5 2.4-1.1 3.4-6 .4-1.5 1.5-3.5 2.5-4.5 1.1-.9 3-2.7 4.4-4 1.4-1.2 3.6-2.2 5-2.2 3.7 0 7.6-2 8.2-4.2.4-1.1 1.6-1.8 3.1-1.8 1.4 0 4.1-1.2 5.9-2.6 1.9-1.4 4.2-2.4 5.2-2.3 1.1.2 4-1.8 7.1-4.8 6-5.7 17.1-12.7 22-13.8 2.1-.4 4.5-2.2 6.8-5 2.7-3.1 5.1-4.7 9.1-6.1 3.7-1.3 5.9-2.7 6.6-4.2.8-1.8 1.8-2.2 5.1-2.2 2.5 0 6-1 8.8-2.5 5.1-2.7 10.7-4.4 18.3-5.4 4.7-.6 5-.8 5.8-4.4 1.2-5.2 4.4-6.7 9.3-4.4 1.9.9 4.1 1.7 4.9 1.7.9 0 2.4.6 3.6 1.2 1.8 1.1 2.3 1 4-1.5 1.3-1.7 3-2.7 4.5-2.7 1.4 0 3.4-.5 4.4-1 1-.6 5.9-1.2 10.9-1.3 5.2-.2 9.6-.9 10.5-1.6.8-.7 1.6-3.3 1.8-5.9.3-4.6.4-4.7 3.8-5 3.9-.4 5.1-1.7 4.5-4.7-.3-1.1-.9-7.4-1.5-13.9-.7-7.8-1.6-12.9-2.8-14.8-1.6-2.8-1.6-3 .3-4.4 1.9-1.4 2-2.5 1.7-26.7-.2-24.1-1.4-36.7-3.5-36.7-.5 0-.7-1.3-.4-3 .5-2.2.1-3.6-1.7-5.6-1.2-1.5-2.5-2.3-2.9-1.8zm-146.9 60.6c-.2 1.3-1 2.3-1.8 2.3s-1.6-1-1.8-2.3c-.3-1.7.2-2.2 1.8-2.2s2.1.5 1.8 2.2zm9.2.3c0 2.1-.5 2.5-3 2.5-2.3 0-3-.5-3-1.9 0-2 1.2-2.9 4.3-3 1.2-.1 1.7.7 1.7 2.4zm-43 30c0 .8-.7 1.5-1.5 1.5s-1.5-.7-1.5-1.5.7-1.5 1.5-1.5 1.5.7 1.5 1.5zm-18.2 13.6c-.2 1.2-1.3 2.8-2.5 3.6-2 1.4-2.3 1.4-2.9 0-.6-1.7 2.3-5.5 4.4-5.6.8-.1 1.2.7 1 2zm-7 1.7c.4 2.6-3 6.2-6 6.2-2.2 0-2.2-.4-.1-5.2 1.3-2.9 2.2-3.8 3.8-3.6 1.2.2 2.1 1.2 2.3 2.6zM662 726.3c0 .8-.9 2.2-2 3.2s-2 2.4-2 3.2c0 1.6-4.4 6.3-6 6.3-1.5 0-1.2-3.6.5-5 .9-.7 1.2-2.2.9-3.9-.5-2.2-.1-2.9 1.8-3.8 3.2-1.6 6.8-1.6 6.8 0zm-22.9 19.8c2.3 4.6 1.6 6.3-2.2 5.7-2.1-.3-2.4-.9-2.7-5.1-.4-6.1 1.9-6.4 4.9-.6zm-8.1 10.4c0 .8-.7 1.5-1.5 1.5s-1.5-.7-1.5-1.5.7-1.5 1.5-1.5 1.5.7 1.5 1.5zm-46.5 29.6c.8 2.5-.6 4.2-3.1 3.7-1.2-.2-2-1.3-2.2-3.1-.3-2.3 0-2.7 2.2-2.7 1.6 0 2.7.7 3.1 2.1zM719 812.5c0 .8-.7 1.5-1.5 1.5s-1.5-.7-1.5-1.5.7-1.5 1.5-1.5 1.5.7 1.5 1.5zm-164.3 26.7c2 1.7 1.5 3.2-2.2 6.8-1.9 1.9-3.5 4-3.5 4.8 0 .7-.8 1.2-1.7 1-2.4-.4-3-4.8-.9-6 1.1-.6 1.6-2.3 1.6-5 0-3.9.1-4 2.7-3.3 1.6.4 3.4 1.1 4 1.7zm-2.7 16.3c0 .8-.9 1.5-2 1.5s-2-.7-2-1.5.9-1.5 2-1.5 2 .7 2 1.5z"/><path d="M898.8 544.9c-1.5 2.1-7.8 3.5-15.3 3.3-6.4-.2-7.4.6-8.6 5.8-.9 4-.8 4.6 1.5 6.8 2.9 3 5.6 2.6 10.3-1.5 1.7-1.5 4.4-3.6 5.8-4.6 1.4-1.1 3-3 3.5-4.3.6-1.4 1.8-2.4 2.9-2.4 2.2 0 4.5-2.5 3.6-4-.9-1.5-2.2-1.2-3.7.9zM821.6 557.7c-1.2 1.2-.6 4.3.9 4.3.8 0 1.5-.9 1.5-1.9 0-2.1-1.3-3.4-2.4-2.4zM845.2 562.8c-4.6 4.5-4.6 5.7 0 9.7 2.3 1.9 5 3.5 6 3.5s1.8.7 1.8 1.6c0 2.7-2 5.4-4 5.4-1.1 0-2 .7-2 1.5 0 1.9 1.4 1.9 3-.1.8-.8 2.5-1.4 4-1.2 3 .3 6-1.6 6-3.9 0-.8-1.3-2-3-2.6-3.5-1.3-3.8-3-1-5.9 2.7-2.9 2.5-4-.9-7.7-3.6-3.8-6.2-3.9-9.9-.3zM866.3 562.5c-.6 1.7 2.3 5.5 4.2 5.5.7 0 1.6-.7 1.9-1.6.8-2.1.8-2-1-3.8-2-2-4.3-2-5.1-.1zM926 562.5c0 .8.4 1.5 1 1.5.5 0 .7-.7.4-1.5-.4-.8-.8-1.5-1-1.5-.2 0-.4.7-.4 1.5zM1032.1 581.9c-5.6 5.3-11 10.9-11.9 12.3-2.2 3.3-16.7 19.2-21.2 23.2-9.4 8.5-16.9 16.3-17.2 18.1-.2 1.3-1.4 2.2-3.3 2.5-2.9.5-3 .7-2.9 6.3.1 3.1.7 6.4 1.4 7.2.7.9 1 2.7.6 4.5-.5 2.7-.3 3 1.8 3 1.3 0 3-1 3.9-2.3 1.3-1.9 1.8-2 3.7-.9 2.6 1.6 5 .1 5-2.9 0-2.1 3.4-2.7 4.5-.8.4.6 3.6.9 8 .8 5-.2 7.8.1 8.9 1 1.3 1.1 1.9 1.1 3 .1 1.1-.8 3.9-1 9.3-.6 14.7 1.1 14.4 1.1 16.9-1.7 5.3-6.2 6.4-17.1 3.9-38.2-1-8.9-1.1-13-.4-16.2.6-2.3.8-6.4.5-9.2-.3-2.8-.9-7.3-1.2-10-.3-2.7-1.1-5.2-1.8-5.4-.7-.3-5.8 3.9-11.5 9.2zM1225.4 573.1c-.4.7.2 2 1.5 3 1.8 1.5 2.7 1.6 4.3.8 2.9-1.6 1.8-4.3-1.9-4.7-1.7-.2-3.5.2-3.9.9zM864.6 574.6c-.8.8-1.3 2.1-.9 3 .8 2.2 4.7 1.3 5.1-1.2.4-2.7-2.2-3.8-4.2-1.8zM1258 586.5c-1.5 1.8-.5 3.5 2 3.5 1 0 2.2-.5 2.5-1 .7-1.1-1.2-4-2.5-4-.4 0-1.3.7-2 1.5zM1240 591c1.9 1.3 3 1.3 3 0 0-.6-1-1-2.2-1-1.9 0-2 .2-.8 1zM760 598c0 .5.9 1 2 1s2-.5 2-1c0-.6-.9-1-2-1s-2 .4-2 1zM1268.7 610.6c-1.4 1.5-.6 4.3 1.4 4.9 2.5.8 4.2-.6 3.7-3.1-.3-1.9-3.8-3.1-5.1-1.8zM675 632.5c0 .8.7 1.5 1.5 1.5s1.5-.7 1.5-1.5-.7-1.5-1.5-1.5-1.5.7-1.5 1.5zM1344.2 636.7c.2 2 .9 2.9 2.6 3.1 2 .3 2.3 0 2-2.5-.2-2-.9-2.9-2.6-3.1-2-.3-2.3 0-2 2.5zM643.8 653.7c-1.8.5-3.6 4.9-2.4 6 .4.4 1.9.2 3.4-.3 1.9-.7 2.6-1.6 2.4-2.9-.5-2.6-1.3-3.2-3.4-2.8zM968.1 657.3c-1.3 1.7-.4 5 1.3 4.4 1.5-.5 2-3.7.9-4.8-.6-.6-1.4-.4-2.2.4zM1070 658.5c0 .8.5 1.5 1 1.5.6 0 1-.7 1-1.5s-.4-1.5-1-1.5c-.5 0-1 .7-1 1.5zM1062.1 666.9c-1.5 1-.8 4.1.9 4.1 1.5 0 2.5-2.9 1.4-4-.5-.5-1.5-.5-2.3-.1zM1079.8 667.6c-.3.3-.1 1.8.5 3.5 1.5 3.7 5.7 4.2 5.7.6 0-3.5-4.1-6.3-6.2-4.1zM1304.2 671.1l-3.2 1 .6 5.3c.5 3.7.1 7-1.2 11.2-1.3 4.4-1.8 9.5-1.8 20.3-.1 15.4-.5 16.4-4.9 14.3-1.2-.6-3.1-1.3-4.2-1.7-2.8-.9-39.7 1.6-41.2 2.8-1.6 1.2-1.7 4.9-.2 6.4.9.9.9 1.9-.1 4.2-1.9 4.6-.9 14.4 1.8 18.1 1.2 1.6 2.2 3.5 2.2 4.3 0 .8.9 2.2 2 3.2 1.6 1.4 2.9 1.6 7.1 1.1l5.2-.7-.8 2.8c-1.1 4.5-.8 7.3.9 9.2.9 1 1.6 2.9 1.6 4.3 0 1.9 1.5 3.9 5 7.1 3.4 3.1 5 5.3 5 6.9 0 1.4.9 3.3 2 4.3s2 3 2 4.5c0 1.9 1.1 3.6 4.1 5.9 3.2 2.6 3.9 3.8 3.5 5.6-.4 1.4 0 2.8.9 3.5.8.7 1.5 2.5 1.5 4s.7 3.3 1.5 4c.8.7 1.5 2.5 1.5 4.1 0 4.5 5.8 13.9 9.4 15.4 2.1.9 3.8 2.8 5.4 5.9 2.4 5.1 2.9 10.6 1 10.6-3.5.1-4.2 1.7-2.8 6.4.9 3.5 1 5.3.2 7-.9 2-.7 2.7.9 4.2 1.4 1.3 1.9 2.7 1.6 4.4-.9 4.3.9 6.2 5.2 5.5l3.7-.6-.1 5.6c0 5.2-.3 5.7-3.3 7.5-3 1.8-3.2 2.3-2.6 5.5.4 2.3.2 3.5-.5 3.5-2 0-1.2 4.2.9 4.7 1.3.3 2.1 1.5 2.2 3.2.3 5.2-.4 10.5-1.8 12.6-1.1 1.7-1.2 3.3-.3 7.9 1 5.7 1 5.8-2.5 10.9-2 2.9-3.6 5.6-3.6 6.1 0 .4-.9 2.1-2.1 3.8-1.2 1.6-1.8 3.2-1.4 3.6.4.4 4.8.8 9.8.8 5.1.1 14.6.6 21.2 1.1 6.6.5 15.4.8 19.5.5 4.1-.2 8.9-.1 10.6.3 3.7.6 5.1 3.2 3 5.3-1.3 1.3-1.9 1.3-4.8 0-2.5-1.1-5.5-1.4-12.3-1-9.5.5-10.1.5-20.7-.4-6.7-.6-6.8-.5-6.8 1.8 0 1.7 2.3 4.6 7.5 9.7 4.1 4 7.5 7.6 7.5 8.1s2 3.4 4.5 6.4c4.8 5.9 5.4 7.6 3 7.6-1.4 0-5-3.5-16.7-15.8-1.7-1.8-5.7-4.6-8.8-6.2-3.1-1.6-6.2-3.5-6.9-4.4-2-2.4-5-2-6.1.9-1 2.7-.3 8.2 1.1 9.1 2 1.2.7 4.4-3.1 8-5.4 5.2-5.3 6.7.5 5.8 3.7-.5 4.5-.3 4.5.9 0 3.4-1.2 4.7-4.6 4.7-1.9 0-3.4.4-3.4.8s2.3 3 5 5.7c6.9 6.8 6.7 7.9-1.3 7.1-5.6-.5-6.6-.4-8.2 1.4-.9 1-1.5 2.6-1.1 3.5.3.9-1 4.6-3.1 8.6-3.4 6.5-3.5 7.2-2.4 10.9.6 2.1 2.3 4.8 3.7 5.9 3.6 2.8 2.5 4.9-2.7 5.3-3.2.2-4.7.9-6.2 3.1-1.6 2.1-1.8 3-.9 3.9 1.8 1.8 1.5 3.6-1.5 7.5-2.1 2.8-2.8 4.8-2.8 8.2 0 4-.3 4.6-2.2 4.9-1.8.3-2.3 1-2.3 3.2 0 2-.9 3.5-3 5-3.4 2.4-3.7 3.7-1.4 5.5 2.5 1.8.9 5.1-3.4 7.2-2.8 1.4-3.8 2.6-4.3 5.1-.4 1.8-.3 3.5.2 3.8 1.9 1.1.8 3.3-1.8 3.6-2.1.2-2.9.9-3.1 2.8-.4 3.7-2.2 6.8-4.3 7.3-1.1.3-1.9 1.4-1.9 2.6 0 1.2-1.6 3.9-3.6 6-1.9 2.2-3.6 5.1-3.8 6.5-.3 3.1-2.1 5.2-6.8 8.2-2.9 1.9-3.8 3.1-3.8 5.3 0 1.9-1.3 4.3-4.2 7.5-12.1 13.1-15.3 18.6-12.7 21.1.8.7 3.9 1.7 6.9 2.3 11 2 24.6 5.1 27.3 6.1 1.6.6 4.4 1.1 6.3 1.1 1.9 0 4.5.6 5.7 1.4 1.2.8 3.8 1.7 5.7 2.1 1.9.4 5.8 1.3 8.5 2.1 4.9 1.4 5.2 1.6 7.7 7.7 1.4 3.4 3.2 10 3.8 14.7 2.1 14.8 4.2 25 6.3 30.6 3 8 4.7 10.5 6.9 10.2 3.1-.4 3.2-2.3.3-3.6-1.9-.9-2.5-1.9-2.5-4.2 0-2.7.3-3 3-3 1.7 0 3.9-.6 5-1.2 1.6-1 2.4-1 4.1 0 1.8 1.2 2.4 1.1 3.6-.1 2.2-2.2-.3-5.5-4.9-6.8-4.2-1.1-4.8-2.7-2-5.2 2.5-2.2 2.8-2.2 7.2 1.3 2.1 1.7 4.5 3 5.4 3 1.7 0 3.8-3.8 2.9-5.3-.7-1.2.8-4.7 2.1-4.7.6 0 1.8-.6 2.4-1.2 1-1 .8-1.6-.9-2.9-3.1-2.3-1.6-4.2 3-3.5 4.7.7 8.2-1.3 9.6-5.5.9-2.6 1.8-3.5 3.9-3.7 3.1-.4 4.2-2.4 5.1-9.5.5-3.6 1.5-5.6 4.1-8.2 1.9-1.9 3.4-3.9 3.4-4.5 0-2.4 2.8-.7 3.4 2 .6 3.3 3.1 4.9 4.8 3.2 1.7-1.7 0-7.2-2.2-7.2-1.8 0-4-2.7-4-4.9 0-.6 1-1.3 2.3-1.6 1.2-.3 3.3-2.2 4.7-4.2 3.7-5.4 4.8-6.3 8-6.3 1.6 0 3.2-.5 3.5-1 1.2-1.9-1.6-4-5.1-4-3.8 0-4.2-.9-1.6-3.3 2.3-2.1 4.1-2.1 6.6-.2 1.7 1.3 2.3 1.3 4.5-.1 4.7-3 10.1-8.9 10.1-11 0-1.2-.7-2.7-1.5-3.4-.8-.7-1.5-2.6-1.5-4.2 0-3.7 2.8-12.8 4.6-14.9 1.6-1.8 1.8-5.5.4-6.4-1.6-1-1.2-4 1-6.5 1.1-1.2 2.2-3.1 2.5-4 .6-1.9 6.1-3.7 7.3-2.5.4.4.7 1.7.7 2.8 0 2.4 3 3.4 5.4 1.8 1.9-1.2.6-4.1-1.9-4.1-2.4 0-2.6-2.2-.5-4 .8-.7 1.5-1.8 1.5-2.5s-.7-1.8-1.5-2.5c-2-1.6-1.9-4 .1-5.5 2.7-1.9 1-6.4-2.6-7.2-3.1-.6-4.3-3.7-1.7-4.6 1.8-.6 4.7 1.1 4.7 2.8 0 2.3 1.6 1.8 4-1.2l2.1-2.7-3-2.9c-3.4-3.1-3.8-5.8-2-11.6 2.3-7.1 3-8.2 5.8-9.2 3.2-1.1 5.4-4.9 4-7-1.6-2.6-.9-5.6 1.6-7.3 1.4-.9 2.5-2.5 2.5-3.6 0-2.5 1.7-2.5 5.5 0 3.4 2.3 6.8 2.6 8.3.7 1.3-1.5-5.1-11.7-7.4-11.7-1.9 0-1.8-2.6.2-3.4 1.1-.4 1.5-1.6 1.2-4.3l-.3-3.8 11.8-.7c12.1-.7 14.7-1.6 14.7-4.9 0-1.1.5-2.8 1.2-3.9 1-1.6.9-2.3-1.2-4.5-1.8-1.9-2.1-2.8-1.2-3.7 2-2 1.4-4.5-1.6-7-4.3-3.6-5.6-7.7-3.7-11.5 1.7-3.3 1.2-7.4-.9-9.2-.7-.6-8.2-1.5-16.7-2-26-1.7-44.3-3.1-45.6-3.6-.7-.2-1.3-1.1-1.3-1.9 0-1.2 2.9-1.5 18.8-1.4 17.7 0 26.2-.3 26.2-1 0-.2-1.7-3.5-3.7-7.4-3.2-5.9-5-8-11-12.4-4.8-3.6-7.3-6.1-7.3-7.4 0-3 2.6-2.4 6.3 1.3 1.7 1.8 4.4 3.8 5.9 4.4 2.5 1.1 14.2 9.8 17.6 13 2.9 2.8 10 6.3 11.6 5.7 2.3-.9 2.1-1.7-2.9-11.7-2.9-5.7-4.2-9.3-3.7-10.1.5-.6 1.2-3 1.5-5.4.3-2.8 1.3-4.9 2.8-6.1l2.4-1.9-4.3-4.8c-5.3-6.1-6.7-7.6-8.5-9.1-1.1-.9-1.5-3.1-1.4-7.7 0-3.7-.5-7.6-1.2-9-1.7-3.1-.8-5.6 1.9-5.6 1.3 0 2 .7 2 2 0 1.6 2.6 4 4.4 4 1 0 .6-4.9-.4-5.5-.5-.3-1-3.2-1-6.4 0-6.6-1.4-8.5-5.4-7.5-2.3.5-2.6.3-2.6-2 0-2.2-4.3-7.6-6.1-7.6-.4 0-1.2-1.4-1.8-3.2-.9-2.5-.8-3.6.5-5.6 1.5-2.2 1.4-2.6-1.2-6.3-2.4-3.5-2.6-4.2-1.4-6.3 1.6-3 .6-7.1-2.1-9.4-4.8-3.9-4.9-4.1-4.2-10.1.5-5.4.4-5.9-1.6-6.6-1.2-.4-2.1-1.5-2.1-2.7 0-1.1-1.8-4-4-6.4-2.2-2.4-4-5.2-4-6.1 0-1-1.1-3.6-2.4-5.8-2.1-3.4-3-4-5.8-4s-3.3-.4-3.6-2.5c-.2-1.4-.8-3.5-1.4-4.8-1-1.9-.8-2.6 1.4-5 4.9-5.2 4.9-6 .4-14.7-3.9-7.7-4.3-8-7.6-8.1-4 0-5-2.1-2.9-6.1 1.1-2.1 1-2.9-.6-5.9-1.8-3.4-1.8-3.6 0-7 1.7-3.3 1.8-3.5 0-5.4-2-2.2-4.6-2.5-7.6-1-2.5 1.4-2.4 4.5.1 7 2.3 2.3 2.7 6 .5 6-1.7 0-6.1-6.6-7.1-10.7-.4-1.5-3.5-5.5-7-8.9-5-4.9-6.1-6.5-5.7-8.5.6-3.5-2.4-5.8-8.6-6.6-6-.7-7.3-3.3-1.6-3.3 3.8 0 4.1-.8 3.6-9.2-.1-2 .2-3.9.8-4.2.6-.4.6-1.7-.1-3.8-.9-2.4-.8-3.3 0-3.6 2.3-.7 1.2-3-2.3-4.6-3.5-1.7-4.8-4.6-2-4.6 3.1 0 1.3-2.6-3.2-4.7-3.9-1.8-7.2-2.3-17.8-2.7-7.1-.3-14.8-.7-17-1-2.2-.3-5.5-.1-7.3.5zm72.8 294.4c0 .8-.9 1.5-2 1.5s-2-.7-2-1.5.9-1.5 2-1.5 2 .7 2 1.5zm-70.2 158.9c.5 2.6-1.2 4-4.2 3.2-2.5-.6-3.5-3.3-1.9-5 1.4-1.4 5.8-.1 6.1 1.8zm-25 6.3c-.5 2.5-2.8 2.8-2.8.4 0-1.2.6-2.1 1.6-2.1.9 0 1.4.7 1.2 1.7zm-8.8 13.8c0 .8-.7 1.5-1.5 1.5s-1.5-.7-1.5-1.5.7-1.5 1.5-1.5 1.5.7 1.5 1.5zm-10.3 6.1c.6 1.6-1.2 3.4-3.4 3.4-.7 0-1.3-1.1-1.3-2.5 0-1.8.5-2.5 2-2.5 1.1 0 2.3.7 2.7 1.6zm99.3 18.9c0 2.7-.9 3.2-2.8 1.3-1.8-1.8-1.4-3.8.8-3.8 1.5 0 2 .7 2 2.5zm-5 9.4c0 1.1-.5 2.3-1.1 2.7-1.5.9-3.3-1.2-2.6-3 .9-2.3 3.7-2 3.7.3zM597.7 695.3c-.6 1.6.2 3.1 2.3 4.1.8.4 2.6 1.3 3.9 2.1 2.8 1.6 5.3.9 4.9-1.3-.7-3.5-10-7.7-11.1-4.9zM873.6 699.9c-3.6 4-.7 7.5 3.8 4.6 2.1-1.4 2.3-2 1.3-3.6-1.7-2.7-3.3-3-5.1-1zM863.4 708.1c-1 1.7 1.3 3.6 2.7 2.2 1.2-1.2.4-3.3-1.1-3.3-.5 0-1.2.5-1.6 1.1zM573.7 723.7c-.3.5-.8 2.7-1.2 5-.5 3.4-.4 4.3.8 4.3 2 0 4.7-3.3 4.7-5.6 0-3-3.1-5.6-4.3-3.7zM566.4 738.7c-3.2 3.4-3.1 9 .1 8.5 1.1-.2 2.3-.9 2.7-1.5.4-.7 1.1-.7 2.2.2.9.7 2.2 1.1 3.1.8 1.2-.5 1.1-1.3-.8-5.1-2.8-5.7-4.2-6.2-7.3-2.9zM794 745.5c-1.7 2-.5 4.5 2 4.5 1.1 0 2.3-.7 2.6-1.5.6-1.5-1.1-4.5-2.6-4.5-.4 0-1.3.7-2 1.5zM595.7 761.7c-1.1 1.1-.8 3.1.6 3.6 2.1.8 3.9-.7 3.1-2.6-.6-1.7-2.5-2.2-3.7-1zM538.3 770.7c-2.7 1-1.3 4.1 2.2 5.3 3.7 1.2 5.5.7 5.5-1.5 0-3.2-4.2-5.3-7.7-3.8zM548.2 784.2c-1.7 1.7-1.6 2 1.6 5.6 4.6 5.1 7.4 3.9 4.5-1.9-2.3-4.8-4-5.8-6.1-3.7zM1419.5 797.4c-1.9 1.4-1.9 1.6-.3 4.9 1 2 2.6 4.1 3.7 4.7 1.7.9 2.3.6 3.7-1.5 1.5-2.3 1.5-2.7-.3-5.7-2.2-3.8-4-4.4-6.8-2.4zM577.5 815c-.3.5.1 1 .9 1s1.8-.5 2.1-1c.3-.6-.1-1-.9-1s-1.8.4-2.1 1zM528.5 818.9c-.7 1.2 1.2 2.4 2.5 1.6 1.1-.7.4-2.5-1-2.5-.5 0-1.1.4-1.5.9zM537.6 819.9c-.4.5-.2 1.2.3 1.5.5.4 1.2.2 1.5-.3.4-.5.2-1.2-.3-1.5-.5-.4-1.2-.2-1.5.3zM514.6 822.9c-1 1.5 2 4.5 3.8 3.8 1.4-.5 1.5-1.1.6-2.7-1.1-2-3.5-2.7-4.4-1.1zM721.2 827.2c-1.5 1.8.1 4.1 2.4 3.6 2.3-.4 2.6-4.1.3-4.6-.9-.1-2.1.3-2.7 1zM529 829c-1.2.7-1.2 1.2-.3 2.1 1 1 1.4.9 1.9-.5.8-2.2.2-2.7-1.6-1.6zM508.6 831.8c-1.1 1.4-1.4 2.8-1 5.1.5 2.3.3 3.6-.7 4.2-1.1.6-1.1 1.3-.3 2.6 1.5 2.4 3.3 2.7 4 .6.3-1 1-2.6 1.5-3.6.7-1.3.5-1.9-.6-2.3-1.9-.8-1.9-2.3.1-4.5 1.5-1.7 1.2-3.9-.5-3.9-.4 0-1.5.8-2.5 1.8zM529 846c-2.1 2.1-2.1 2.2-.3 5.2 2.2 3.8 4.5 5.3 6.7 4.5 3.2-1.2 1.5-8.6-2.4-10.7-1.5-.8-2.4-.6-4 1zM508 862c0 1.1.5 2 1 2 .6 0 1-.9 1-2s-.4-2-1-2c-.5 0-1 .9-1 2zM529 863c0 1.4.7 2 2.3 2 1.3 0 2.6-.3 3-.6 1.2-1.2-.6-3.4-2.9-3.4-1.7 0-2.4.6-2.4 2zM509 886.4c0 .9.5 1.6 1 1.6.6 0 1-.4 1-.9 0-.6-.4-1.3-1-1.6-.5-.3-1 .1-1 .9zM527 889.9c0 1.1.4 2.2.9 2.5 1.2.8 3.4-2.1 2.6-3.4-1.1-1.7-3.5-1.1-3.5.9zM1454.4 891.3c-1.1 3.1 0 7.2 2.2 7.5 2.7.4 5.3-4.2 3.8-6.6-1.4-2.2-5.2-2.8-6-.9zM666.8 921.8c-6.7 7.2-20.3 18.1-29.1 23.5-6.9 4.1-17.7 13.9-17.7 16.1 0 .9 3.3 3.6 7.7 6.3 4.3 2.7 9.7 6.7 12.1 9 2.4 2.3 5.3 4.5 6.5 4.9 1.1.3 3.2 1.7 4.5 2.9 4.6 4.3 31.7 18.3 33 17.1.3-.4 0-1.7-.7-2.9-.8-1.1-1.5-4.2-1.6-6.8-.2-3.7-1.3-6.2-5.9-13.1-5.5-8.4-6.6-11.1-4.6-12.3 1.2-.8.4-6.4-1.7-11.3-1.1-2.7-1.2-3.7-.1-4.9.6-.8 1.1-2.8 1-4.4-.1-1.6.3-3.9.9-5 .9-1.7.7-2.1-1-2.6-2.3-.6-2.8-2.8-1-3.9.7-.4.9-2.4.6-5.2-.3-2.5-.1-5.6.4-6.9 1.2-3.3-.4-3.6-3.3-.5zM526.6 932.8c-.8 1.3 1.1 3.5 2.3 2.8 1.6-1 1.4-3.6-.3-3.6-.8 0-1.7.4-2 .8zM1475.2 944.2c-1.7 1.7-1.5 4.8.4 5.5.8.3 2.2-.1 3.1-.9 1.2-1.2 1.3-2 .4-3.7-1.3-2.4-2.2-2.6-3.9-.9zM608.2 968.9c-2.2 2.8-4.1 4-6.7 4.4-2 .3-5.5 2.1-7.8 3.9-2.3 1.9-6 4.5-8.2 6-2.2 1.5-5.6 4.1-7.5 5.8-1.9 1.7-7.2 5.6-11.7 8.6-11.3 7.5-14.8 11.4-10.3 11.4 1.1 0 2-.3 2-.8 0-1.1 11-7.5 11.8-6.7.3.3-1.3 2.3-3.7 4.3-2.4 2-7.3 6.4-10.8 9.7l-6.5 6.1-.3 6.7c-.4 5.9-.2 6.8 1.8 8.2 1.2.8 2.9 1.5 3.9 1.5 1.4 0 1.8.8 1.7 3.2-.1 3.7 1.4 10.2 2.8 12.1.5.7 1.5 3.2 2.2 5.7.7 2.5 1.7 5.3 2.2 6.2.5 1 .9 2.3.9 3 0 .7.7 2.6 1.6 4.3.9 1.8 1.6 6.1 1.8 10.7.1 4.3.4 7.9.7 8.2.2.2 1.8 1.1 3.6 2 2.4 1.2 3.4 2.5 3.9 5.1.3 1.9.4 4.1.1 4.9-.3.7.2 2.6 1.2 4.2.9 1.6 2.3 5.5 3 8.6 1.1 4.6 1.8 5.8 3.7 6.2 1.8.5 2.4 1.3 2.4 3.6 0 1.6.5 3.2 1.1 3.5.6.4.9 2.1.8 3.9-.3 3.8 2.3 8.2 6.2 10.2 2.4 1.2 2.9 2.1 2.9 5.3 0 2.5-.5 4.1-1.5 4.5-.8.3-1.5 1.2-1.5 2.1 0 .8.7 1.5 1.5 1.5 2.3 0 1.8 3.6-.7 5.2-2.7 1.8-1.6 4.3 1.2 2.8 3-1.6 5.5-1.2 8.5 1.5 2.3 2.2 2.6 3.1 2.1 6-.4 1.9-.2 3.6.4 4 .5.3 1 1.5 1 2.5s1.5 2.8 3.6 4c2.8 1.8 3.4 2.8 3.2 4.9-.5 4.2-3.8 3.8-7.1-1-1.9-2.8-4.4-4.8-8.3-6.5-7.2-3.2-9.1-3.1-11.2.6-1.2 2.2-2.4 3-4.4 3-2.5 0-2.8.4-2.8 3.1 0 4.8 1.5 6.6 6.1 7.4 3.2.6 4.5 1.4 6.1 4.1 2 3.3 2.1 3.4 3.9 1.8 1.1-.9 1.9-2.3 1.9-3.1 0-1.9 2.1-1.6 4.6.8 2.1 2 2.7 2.1 6.6.9 2.4-.6 5.4-1.3 6.8-1.3 2.2-.2 2.5.2 2.5 3.3 0 3-.4 3.5-2.5 3.8-3.9.6-4.5 1.9-1.1 2.4 2.1.3 3.7-.1 5.1-1.4 2.7-2.5 4-2.3 4 .8 0 2.3.3 2.5 3 1.9 2.6-.6 3-.4 3 1.4 0 1.3-.9 2.5-2.2 3-1.3.5-3.1 1.8-4.1 2.8-1.6 1.9-1.6 2.2-.1 5.9 1.5 3.6 1.5 6.4-.2 13.4-.5 2.2-.1 2.7 2.8 3.8 1.9.6 4.2 1.2 5.1 1.2 2.4 0 2.1 2.3-.8 6.6-3.1 4.6-3.1 6.2-.1 7 1.3.3 2.9 1.7 3.5 3.1 1 2.2 1.6 2.4 4.9 1.9 3.5-.6 3.8-.4 6.6 4 1.7 2.8 4.2 5.2 6.1 6 1.8.7 3.8 2.3 4.6 3.5 1 1.5 2.7 2.3 5.8 2.5 3.6.3 5.2-.1 8.9-2.6 2.5-1.6 5.1-3 5.9-3 .7 0 1.3-.6 1.3-1.4 0-.8 1-1.8 2.3-2.2 1.2-.4 3.5-1.7 5-3 1.6-1.3 3.5-2.4 4.3-2.4 1.4 0 7.9-5.3 20.5-16.8 4.3-4 7.8-9.6 6.7-10.8-.5-.4-4.4-1.1-16.5-3-1.8-.3-3.3-1.1-3.3-1.8 0-1.8 6.6-2.6 21.1-2.6 10.7 0 11.9.2 11.9 1.8 0 2.3-2.6 5.9-6.9 9.7-1.8 1.6-8.8 8.4-15.5 15-6.6 6.7-13.2 12.9-14.6 13.8-1.3.9-4.7 3.9-7.5 6.5-2.7 2.6-8.3 7.6-12.2 11.1-7.2 6.3-9.4 9.3-5 6.9 3.6-2 28.2-2 33.9-.1 4.9 1.7 5.2 2.2 8.8 14 .7 2.4 1.7 4.3 2.1 4.3.4 0 1.7-1.3 2.8-2.9 1.8-2.5 2.8-2.9 6.7-2.9 3.8 0 4.7.3 5.6 2.4.7 1.5 2 2.4 3.5 2.4 1.3 0 3.1.9 4 2 1 1.1 2.9 2 4.4 2 1.8 0 4.2 1.5 7.7 5 2.8 2.7 5.8 5 6.6 5 .8 0 2.9 1.4 4.6 3 2.3 2.3 4 3 7 3 4.7 0 7 2.1 7 6.3 0 2.2.3 2.8.9 1.8 1.2-1.9 6.6-.5 8.8 2.2 2.1 2.6 6.7 5.7 8.5 5.7.7 0 3.2 1 5.6 2.2 3 1.7 4.2 2.9 4.2 4.5 0 1.5-.6 2.3-1.7 2.3-1 0-2.8.3-4 .6-1.7.5-2.3.2-2.3-.9 0-1.6-2.4-3-3.4-2-.3.4-.6 1.7-.6 3 0 1.8-.6 2.3-2.4 2.3-1.3 0-2.9-.7-3.6-1.5-.7-.9-2.2-1.2-3.9-.9-1.8.4-3.2 0-4-1-.8-.9-2.4-1.6-3.8-1.6-1.3 0-3.9-1.1-5.7-2.5-1.8-1.4-4.3-2.5-5.5-2.5h-2.2l2 2.9c2.9 4 2.6 6.3-1 8.3-4.5 2.6-5.9 2.3-5.9-1.2 0-2.1-.5-3-1.6-3s-1.5-.6-1.1-2c.5-2.1-1.6-2.9-2.8-1-.3.5-1.9 1-3.6 1-2.2 0-2.9.5-2.9 2 0 1.7-.7 1.9-6.2 1.8-3.5 0-9.8-.4-14.1-1-5.8-.7-8.2-.6-9.3.3-.7.6-2.5.9-3.8.5-3.2-.8-5 1.5-4.1 5.2.9 4.1-1.4 5.9-5.5 4.2-3.5-1.5-3.8-3-1-5.5 1.1-1 2-2.6 2-3.7 0-1.5-.8-1.8-4.7-1.8-3 0-5.3.6-6.5 1.7-1.6 1.4-2.5 1.5-6.1.6-2.3-.6-5.4-.9-6.9-.6-2 .4-2.7 0-3.3-1.6-.8-2.7-3.5-2.7-3.5-.1 0 1.3.7 2 1.9 2 1 0 2.1.8 2.4 1.9.3 1.3 1.8 2 5.6 2.5 4.3.6 5.1 1 5.1 2.8 0 1.6-.4 1.9-2.2 1.4-4.4-1.4-5.2-1.1-6.1 2.2-.8 2.5-.7 3.6.7 5 2.8 3.2 1.5 5.2-3.4 5.2-1.6 0-1.9-.9-2.2-5.8l-.3-5.7-5.5-.7c-3-.4-7.2-1-9.2-1.4-3.4-.6-3.6-.4-3.1 1.5.4 1.6.1 2.1-1.6 2.1-1.1 0-2.1-.4-2.1-.9 0-1.2-5.8-4.1-8.2-4.1-1 0-1.8.4-1.8 1 0 1.4-2.6 1.3-5.1-.3-1.7-1-2.2-.9-3.3.5-1.7 2.3-3.2 2.3-6.3-.2-2.8-2.2-9.2-2.7-11-.9-.7.7-3 .8-7.3.1-6.1-.9-6.2-.9-9.1 2.2-1.7 1.9-2.9 4.2-2.9 5.8 0 2.5-.3 2.8-3.5 2.8-2.7 0-3.5-.4-3.5-1.8 0-.9-.3-2.7-.6-4-.5-1.8-.2-2.4 1.5-2.9 2.7-.7 2.7-1.8-.1-3.7-3.4-2.4-4.7-2-4.7 1.6-.1 8.4-.5 10.3-2.6 10.3-1.6 0-2.1-.8-2.3-3.8-.3-3-1-4.2-3.3-5.6-1.7-1-3.7-2.8-4.6-4-1.2-1.7-1.8-2-2.9-1-1.8 1.5-1.8 3.9.1 3.9.8 0 1.5.6 1.5 1.2-.1 2.2-2.3 4.3-7 6.8-2.5 1.4-5.3 3.1-6.2 3.8-2.5 2.1-4.8.8-4.8-2.8 0-3.3-1.9-4-4-1.5-1.8 2.1-3.5 1.9-6.4-1-1.3-1.3-3.6-2.7-5.1-3.1-3.5-.9-9.2 2.2-10.8 5.8-1 2.3-1.8 2.8-4.6 2.8-3.2 0-3.3-.1-2.7-3.1.5-2.7.4-3-.9-1.9-1.2 1-2.1 1-4.1.1-4-1.8-4.7-1.4-4 2.4.6 3.2.5 3.5-1.7 3.5-2.6 0-7.3-4-8.2-7.1-.8-2.6-5.1-3.5-8.3-1.8-1.4.8-4.1 3.6-6 6.2-3.7 5.1-6.5 5.9-7 1.9-.2-1.4.2-2.2 1.2-2.2 2.2 0 2.7-1.5 1.2-3.5-1-1.5-1.6-1.6-3.5-.6-1.7.9-3 .9-5.9-.1-2-.6-4.1-1.6-4.6-2-1.5-1.2-3.6-1-3.6.4 0 .7 1.4 2.1 3 3 1.8 1 3 2.5 3 3.8 0 1.6.6 2 3.5 2 3.5 0 3.6.1 3 3.3-.5 2.7-.1 4 2 6.5 3.3 3.9 3 7.7-.6 9.9-4.1 2.5-5.9 1.2-5.9-4.5 0-6.2-2.6-13.9-5-14.7-1-.3-3-1.7-4.5-3.1-2-1.9-3.5-2.4-5.4-2.1-1.4.3-3.9 0-5.6-.7-1.6-.7-4.6-1.6-6.7-2-3.1-.6-3.9-.3-5.6 1.9-2.3 2.9-4 3.2-5.8.7-1-1.3-1.5-1.4-2.5-.5-1 1-.9 1.5.1 2.8 1.4 1.7 7.5 2.1 8.5.5.3-.6 1.5-1 2.7-1 1.6 0 1.9.5 1.5 2.1-.8 3 5.2 8.9 9.1 8.9 1.6 0 3.5.7 4.2 1.5.7.8 1.8 1.5 2.5 1.5s1.8.6 2.4 1.4c.7.8 2 1.2 3 .9 4.2-1.1 3.8 5.6-.4 7.5-1.4.7-3.7 1.2-5 1.2-2.2 0-2.4-.4-2.2-3.8l.2-3.7h-4.7c-3.6 0-5.2-.5-6.8-2.3-1.7-1.8-2.5-2.1-3.6-1.1-1.2.9-1.1 1.4.1 3.2.8 1.2 1.5 3.3 1.5 4.6 0 1.9.3 2.2 1.2 1.3.7-.7 2.2-1.2 3.4-1.2 1.6 0 2.3.8 2.8 3.1l.6 3.2 7-.7c6-.6 7.4-.4 9.3 1.1 1.8 1.4 3.9 1.8 9 1.7 4.7-.2 6.7.1 6.7 1 0 2 5.3 5.3 9.3 5.8 4.2.5 4.1.5 2.5-2.1-1.9-3-.3-5.4 3.2-4.7 1.7.3 3 .2 3.1-.2.6-5.9.3-7.5-1.7-8.3-1.2-.4-2.8-1.7-3.6-2.8-1-1.3-2.8-2.1-5.8-2.3-3.6-.2-4.6-.8-6.1-3.3-2.5-4.3-2.3-6.4.7-7.1 2.8-.7 4.4.7 4.4 3.8 0 2.6 1.8 3.1 3 .8 1.7-3.1 4.4-2.4 6.3 1.5 1.8 3.7 3.4 4.5 4.3 2 .4-.8 1.4-1.5 2.5-1.5 2.3 0 3.4 5.1 2.6 11.8-.7 5.1.9 8.7 3.5 7.7 1-.4 1.3-1.6 1-3.7-.4-2.9-.3-3.1 1.9-2.5 1.3.4 2.8.7 3.2.7.5 0 .8 1 .7 2.2-.4 4.3 0 4.8 3.3 4.8 1.8 0 3.8.5 4.4 1.1 2.6 2.6 17.3 3.3 17.3.9 0-.5-.7-1.5-1.5-2.4-2.5-2.4-1.7-3.6 2.5-3.6 2.7 0 4.5.6 5.9 2.1l1.9 2.1 1.1-2c.6-1.2 1.1-2.8 1.1-3.6 0-.9.9-1.6 2-1.6 1.7 0 2 .7 2 4 0 3.1.4 4 1.8 4 2.1 0 4.6-5 3.2-6.4-.5-.5-1-2.2-1-3.7 0-2.3-.5-2.8-2.7-3.1-2-.2-2.9-.9-3.1-2.5-.3-1.8.5-2.6 3.5-3.8 2.1-.9 4.5-1.4 5.4-1.2 2.9.8 4.9-1.2 4.9-4.8 0-2.4.6-3.8 1.9-4.5 3.1-1.6 4.1-1.2 4.1 1.5 0 1.4-.4 2.5-.8 2.5-.5 0-.8 2.9-.7 6.5.2 6.7-.2 7.3-3.6 5.4-1.5-.7-2.4-.7-3.5.2-2.1 1.7-1.7 3.7.8 4.1 1.6.2 2.4 1.2 2.8 3.2.9 5.2 7 6.4 7 1.3 0-3.3 2.3-6.2 4.4-5.4.9.4 1.6 1.3 1.6 2.1s.8 1.7 1.8 2c.9.3 2.5 1.9 3.4 3.6 1.9 3.3 3.5 3.8 4.4 1.5.8-1.9 3.3-1.9 5.4 0 .9.8 3 1.8 4.7 2.1 2.5.5 3.5.1 5.5-2.1 2.9-3.1 2.7-7-.3-7.8-3.5-.9-2.4-5.2 1.9-7.5 2.1-1.1 3.5-2.6 3.3-3.3-1.2-4.4-.7-5.4 3.1-5.4 2-.1 4.8-.7 6.2-1.5 3.3-1.7 4-1 3.2 3.4-.4 2.3-1.8 4.3-4.1 6.1-2.9 2.2-3.5 3.2-3.5 6.5 0 2.1-.4 4.1-.9 4.4-1 .7-2.3 5.9-2.5 10.1-.1 2.2.7 3.8 3.2 5.9 2.2 1.9 3.2 2.4 3.2 1.3 0-.8-.7-1.7-1.5-2.1-2.5-.9-1.9-4.6.8-4.6 3.3 0 4.5-1.2 4.9-4.5.4-4.2 2.8-4.2 7.7 0 4.4 3.6 8.1 4.6 8.1 2.1 0-.8-.9-1.8-2-2.1-1.1-.4-2.8-1.9-3.8-3.3-.9-1.5-2.2-3.3-2.9-4-4.5-4.7 2.4-7.4 14.5-5.6 4.5.6 5.7 2.8 2.2 3.9-2.8.9-2.5 4.1.4 4.9 1.4.3 2.7 1.4 3.1 2.5.5 1.6 1.4 1.8 6.8 1.6 3.4-.2 6.5-.3 7-.4.4-.1.7-1 .7-2 0-2.5 1.4-3.4 4-2.6 2.5.8 2.5 1.5-.3 5.6-1.7 2.5-3 3.4-5.2 3.4-3.1.1-4.6 2.2-2.4 3.6.8.5 3.3.6 5.5.3 3-.4 4.9-.1 6.7 1.1 2 1.3 3 1.4 4.6.5 2.9-1.5 2.6-3-.9-4.3-3.3-1.3-4.2-5-1.4-6.1 2.9-1.1 9.3.5 9.9 2.5.4 1.1 1.3 1.9 2.1 1.9 1.9 0 1.8 2.9-.3 5.2-1.3 1.5-1.5 2.3-.7 3.6 1.6 2.6 5.9 4.6 7.9 3.8 1.7-.6 1.7-.8-.3-2.2-2.6-1.8-3-5.4-.6-5.4.9 0 2.1 1.4 2.7 3.1 1 2.7 1.6 3 4.7 2.7 3.4-.3 3.5-.2 3.8 3.3.2 2 1.1 4.4 2 5.2 1.9 1.7 7.3 2.3 10.9 1.2 1.6-.5 2.5-.3 2.9.9.3.9 1.5 1.6 2.6 1.6 2.8 0 7.8 2.8 7.8 4.5 0 2.3 1.9 2.8 4.7 1 1.7-1.2 3.5-1.5 5.7-1 1.7.4 6.7 1 11.1 1.3 7.7.7 8 .8 8.3 3.4.2 1.6 1.7 3.7 3.8 5.3 2 1.5 3.9 3.7 4.4 4.9.8 2 .9 2 1 .1.1-2.5 5.4-8.5 7.5-8.5.8 0 1.5.7 1.5 1.5s.7 1.5 1.5 1.5c1.3 0 1.4-.4.5-2.1-2-3.6-.5-5.1 4.3-4.5 2.3.3 3.6.3 3 0-2-.9-1.5-3.4.6-3.4 1.1 0 2.3-.9 2.6-2.1 1-3.1 3.9-1.9 4.3 1.8.2 2.3.7 3 1.7 2.6 1.1-.4 1.2-1 .4-2.5-1.4-2.7-.6-4.3 3.2-6.2 4.1-2 7.9-2.1 7.9-.1 0 .9.9 1.5 2.4 1.5s2.7.7 3.1 1.9c.9 2.8-.5 5.2-2.9 5-8.1-.6-11.2 1-5.6 3 1.7.5 3 1.6 3 2.3 0 .8.4.7 1-.4 1.6-2.6 7.1-3.4 8.7-1.2.7.9 1.5 1.5 1.8 1.2.8-.8-1.6-6.8-2.7-6.8-1.5 0 .2-8.3 2.1-9.7.9-.7 2.4-1.3 3.5-1.3 1.5 0 1.7.5 1.3 2.9-.6 2.8-.4 3 3.1 3.3 5.1.4 5.4 2.9.6 5.7-2.9 1.7-3.4 2.5-2.5 3.4 1 .9 1.5.8 2.6-.7 1-1.3 2.1-1.7 3.9-1.2 2.3.6 2.4.4 1.9-3.3-.6-4.5 1.3-6.2 6.9-6 1.8.1 4.7-.1 6.4-.5 2.6-.7 3.2-.4 4.1 1.7.9 1.8 1.7 2.4 3.1 2 1.1-.2 3.4.3 5.1 1.2 3.7 1.9 3.8 4.5.3 6-1.2.5-2.1 1.7-2 2.5.3 1.2 1.9 1.5 7.1 1.5 5.4 0 7 .4 7.8 1.7.5 1 1.6 1.5 2.4 1.2 2.3-.9 1.8-2.3-1-3-1.4-.3-2.5-1-2.5-1.5s-1.1-1.5-2.5-2.1c-3-1.4-4.2-5-2.6-8.4.9-1.9.8-2.4-.4-2.4-.8 0-1.5.4-1.5 1 0 .5-.9 1-2 1s-2-.7-2-1.5.9-1.5 2-1.5c1.2 0 2-.7 2-1.6 0-1.3.7-1.5 3.1-1 1.9.3 3.8.1 4.6-.5 1.7-1.5 9.2.7 11.1 3.3 1 1.4 1.7 1.5 4.5.6 1.7-.6 3.4-1.2 3.6-1.4.5-.5-2.6-3.4-3.7-3.4-.5 0-1.7-.9-2.8-2.1-1.4-1.6-2.6-1.9-5-1.5-1.7.4-3.9.4-4.8 0-2.9-1.1-1.7-3.2 2.2-3.7 2-.3 5.1-.9 6.9-1.3 2.8-.5 3.4-.3 4.4 2 .7 1.4 2 2.6 2.9 2.6 2.5 0 4.3 2.6 3.5 5-.5 1.6-.2 2 1.9 2 1.4 0 2.7-.4 3-.9.8-1.2-5.9-8.1-7.8-8.1-3.3 0-3.1-8.4.2-11.3 1.3-1.1 3.8-1.4 10.2-1.2 4.7.1 9.2.6 10.1.9 1.2.5 2.6-.3 4.7-2.5 2.8-2.9 3.4-3.2 5.9-2.3 3.3 1.1 4.2 4 1.7 5.8-1.9 1.4-1.2 3.6 1.2 3.6.8 0 1.4-1 1.4-2.5 0-2.1.5-2.5 3-2.5 2.3 0 3.1.5 3.6 2.4.4 1.9 1.4 2.5 4.9 2.9 2.4.4 7.3 2.1 11 3.9l6.7 3.3 1.9-2.4c1.6-1.9 1.9-4.1 2.1-13.5.2-17.3-.1-33.4-.8-36.1-.3-1.4.1-4.2 1-6.5s1.3-5.2 1-7c-.8-3.7 2.1-5.4 4.2-2.5 1.2 1.7 1.4 1.2 1.4-3.7 0-6.6.7-8.8 2.6-8.8 1 0 1.4 1.2 1.4 4 0 5.2 2.1 5.3 5.4.2 1.3-2 4.7-5.9 7.6-8.6 2.8-2.7 6.3-6.5 7.7-8.3l2.6-3.4-2.9-3.1c-9.2-9.9-19.9-19.6-21.1-19.1-.9.4-1.3 2.5-1.3 7.2 0 7.5-1.6 11.6-4.5 11.6-1.6 0-2.1-1-2.8-5.5-.6-3.7-.4-6.6.3-8.8 1-2.8.9-3.6-.4-5.1-1.8-2-2.1-5.1-.5-5.1.6 0 .9-1 .7-2.3-.2-1.5-1.1-2.3-2.8-2.5-1.4-.2-3.3-1.1-4.2-1.9-1.2-1-2.1-1.2-3.5-.5-1 .6-3 .8-4.4.5-1.5-.3-3 0-3.3.6-.4.6-1.4 1.1-2.2 1.1-1.2 0-1.4-.7-.9-3 .4-1.7.3-3.1-.2-3.1-.4-.1-2.9-.3-5.5-.4-4.1-.2-4.8 0-4.8 1.6 0 2.6-3.9 2.5-9-.1-3.5-1.8-4-2.5-4-5.5 0-2.5-.4-3.5-1.6-3.5-.8 0-3-1.1-4.7-2.4-5.7-4.3-14.9-8.6-18.3-8.6-2.3 0-3.7-.6-4.4-2-.6-1-2.8-2.5-5-3.1-2.2-.7-4.7-2-5.6-3.1-1-1-3-1.8-4.6-1.8-3.6 0-8.9-2.2-10.7-4.3-.7-1-2.4-1.7-3.7-1.7-1.7 0-2.8-.8-3.4-2.6-1-2.4-1.3-2.6-5.5-1.9-2.9.4-4.5.3-4.5-.4 0-.6-1.9-2.9-4.2-5.2-3.2-3.1-4.7-3.9-6.4-3.5-1.9.5-2.8-.1-4.9-3.9-2-3.3-3.3-4.5-5-4.5-1.3 0-3-.9-3.7-1.9-.8-1-2.5-2.1-3.8-2.3-1.7-.2-2.6-1-2.8-2.6-.3-1.7-1-2.2-3.5-2.2-3.9 0-4.4-.4-8.5-5.6-1.7-2.3-4.2-4.4-5.5-4.8-1.3-.3-2.9-1.7-3.5-3-.9-2.1-1.9-2.5-6.4-2.8-6.1-.3-9.8 1.3-19.9 8.7-3.5 2.6-8 5.5-9.9 6.5-3.1 1.6-10.3 7.6-20.7 17.1-2.5 2.3-6.3 8-6.3 9.5 0 .5 10.7 2.4 15.5 2.6 3.6.2 5.1.7 5.3 1.9.5 2.6-4.6 4.2-9.9 3-2.4-.6-8.5-1.1-13.6-1.1-5.5 0-9.5-.4-9.9-1.1-.3-.6.6-2.3 2-3.8s2.6-3.2 2.6-3.8c0-.6 1.5-2.1 3.3-3.2 1.7-1.1 4.5-3.6 6-5.6 1.5-1.9 3.3-3.5 4-3.5.7 0 2.1-1.3 3.2-2.9 1.1-1.5 5.1-5.5 9-8.7 9-7.6 15.4-13.4 17.4-15.8.9-1 2.4-2.6 3.4-3.5.9-.8 1.7-2.2 1.7-3 0-.7 1-2.2 2.2-3.2 2.1-1.9 2.1-1.9.2-4-5.7-6.3-13.8-13.4-18.5-16.2-4.8-2.9-5.4-3.6-5.4-6.6 0-2.3-.6-3.6-2.2-4.4-2.4-1.4-8.3-9-8.3-10.9 0-.7-1.6-2.4-3.5-3.7-2.6-1.7-3.5-3.1-3.5-5.2 0-3.3-1.5-4.4-5.2-4-2.5.2-2.8-.1-2.8-2.7 0-1.8-1.4-4.7-3.6-7.6-2.6-3.4-3.5-5.4-3.1-7.3.3-1.9-.1-2.7-1.8-3.5-2.8-1.3-7.5-9.6-7.5-13.2 0-1.7-1.1-3.8-2.8-5.4-3.5-3.3-6.5-8.4-8.2-13.7-.7-2.2-2.5-6-4.1-8.5-2.7-4.5-8.6-18.3-10.9-25.3-.6-2-1-6.1-.9-9 .3-6.2-.6-9.4-3.4-12.4-2-2.2-2-2.3-.2-6.4 1.7-3.7 1.7-4.4.4-6.7-.8-1.5-4.7-4.9-8.6-7.7-18.2-12.7-28.2-20.6-28.2-22.3-.1-.6-.8-1.2-1.7-1.2-.9 0-7.4-3.8-14.3-8.5s-13.3-8.5-14.2-8.5c-.9 0-3 1.7-4.7 3.9zM581 994c0 .6-.8 1.4-1.7 1.7-1 .4-2.6 1.7-3.6 3-1.7 2.1-4.7 3.2-4.7 1.6 0-1.2 3.3-4.3 4.5-4.3.7 0 1.5-.7 1.9-1.5.6-1.7 3.6-2.1 3.6-.5zm-25 28.8c0 1.2-3.9 5.2-5 5.2-.6 0-1-.9-1-2s.7-2 1.5-2 1.5-.5 1.5-1c0-.6.7-1 1.5-1s1.5.4 1.5.8zm32 71.6c0 2.4-2.3 4.1-4.1 3-.5-.3-.9-1.6-.9-3 0-1.9.5-2.4 2.5-2.4s2.5.5 2.5 2.4zm5.8 9.9c.3 1.2-.3 1.7-2.2 1.7-2.5 0-3.5-1.8-1.9-3.4 1.2-1.2 3.8-.2 4.1 1.7zm5.7 9.4c.3 2.7.8 6.4 1 8.3.2 1.9.9 5.7 1.4 8.4.6 2.6.9 5.8.6 7-.4 1.6.2 2.4 2.7 3.6 3.8 1.7 5.2 6.5 2.2 7.7-2 .8-5.3-3.2-5.4-6.5 0-1.3-.6-2.2-1.5-2.2-.8 0-1.5-.6-1.5-1.4 0-.8-1.2-2.4-2.6-3.5-1.8-1.4-2.5-2.8-2.2-4.5.1-1.3-.4-3.2-1.3-4.3-1.9-2-3.4-11.2-2.2-12.9 1.2-1.6 5.6-4.4 6.9-4.4.6 0 1.5 2.1 1.9 4.7zm69 70.3c.3.5 1.5 1 2.6 1 1 0 1.9.7 1.9 1.5 0 1-1.1 1.5-3.5 1.5-3.1 0-3.5-.3-3.5-2.5 0-2.5 1.4-3.3 2.5-1.5zm176.5 63.5c0 1.8-.5 2.5-2 2.5-2.1 0-2.4-.8-1.4-3.4 1-2.5 3.4-1.9 3.4.9zm5.5 3.6c0 .7-.8 1.5-1.7 1.7-1.8.3-2.5-1.8-1.1-3.2 1-1 2.8-.1 2.8 1.5zm-24.5 0c0 1.9-5.1 6-6.8 5.7-3.1-.6-2.5-3.6.7-4.3 1.7-.4 3.3-1.1 3.6-1.6.8-1.3 2.5-1.1 2.5.2zm140 76.4c0 1.6-.6 2.5-1.5 2.5s-1.5-.9-1.5-2.5.6-2.5 1.5-2.5 1.5.9 1.5 2.5zm8 5c0 .8-.7 1.5-1.5 1.5s-1.5-.7-1.5-1.5.7-1.5 1.5-1.5 1.5.7 1.5 1.5zm-225 22.6c0 2.5-3.3 2.2-3.8-.4-.2-1.2.3-1.7 1.7-1.7 1.5 0 2.1.6 2.1 2.1zm-36.2 7.1c.3 2.4 0 2.8-2.3 2.8-2.7 0-4.1-2-3.1-4.6 1-2.7 5.1-1.3 5.4 1.8zm-80.1 2.9c.8.8 1.6.7 3.1-.2 1.8-1.1 2.3-1 4.1 1.2 3.1 3.7 2.7 6.8-.9 7.6-3 .5-3.1.7-2.4 4.8.5 3.7.3 4.5-1.4 5.4-4.1 2.2-5.4 1.5-4.7-2.7.5-2.9.2-4.2-1-5.2-.9-.7-1.5-2.5-1.3-3.9.1-1.4-.1-3.2-.6-3.9-1.9-3.1 2.4-5.8 5.1-3.1zm-28 3.1c3.5 1.3 4.4 4.3 2.1 6.6-2.9 2.9-7.8-.8-7.8-5.8 0-2.3 1.1-2.5 5.7-.8zm13.4 2.5c.5 1.4.8 3.2.5 4-1.4 3.5-7.3-1-6.1-4.6.9-3 4.3-2.7 5.6.6zm-73.1.8c0 .8-.9 1.5-2 1.5s-2-.7-2-1.5.9-1.5 2-1.5 2 .7 2 1.5zm115-.1c0 2.3-5.6 4.1-8.6 2.7-1.4-.6-3.8-1.1-5.4-1.1-2 0-3-.5-3-1.5 0-1.2 1.6-1.5 8.5-1.5 6.6 0 8.5.3 8.5 1.4zm-60.5 4.7c1 3-.8 4.3-4.9 3.5-2.5-.5-3.6-1.2-3.6-2.5 0-2.5.9-3.1 4.6-3.1 2.4 0 3.4.5 3.9 2.1zm-8.7 6.6c-.2 1-1.3 1.9-2.6 2.1-1.7.3-2.2-.2-2.2-1.7 0-1.6.6-2.1 2.6-2.1 1.9 0 2.5.5 2.2 1.7zm-72.8 1.4c1.6 2.9.5 6.3-2.4 7.8-3.7 2-5.6.8-5.6-3.5 0-5.7 5.7-8.8 8-4.3zm20 .3c0 .7.3 2.8.6 4.5.6 2.7.4 3.1-1.5 3.1-6 0-8.2-4.8-3.3-7.4 3.4-1.9 4.2-1.9 4.2-.2zm66.8.3c-.5 2.6-3.8 2.9-3.8.4 0-1.5.6-2.1 2.1-2.1 1.4 0 1.9.5 1.7 1.7zm85.7 3.3c0 3.6-2.9 3.3-3.3-.3-.3-2.3 0-2.8 1.5-2.5 1.2.2 1.8 1.2 1.8 2.8zm-139.5 7c0 1.5-.7 2-2.5 2s-2.5-.5-2.5-2 .7-2 2.5-2 2.5.5 2.5 2zm147-.3c0 4.2-1.3 9.3-2.4 9.3-.6 0-1.7-.4-2.5-.9-1.1-.7-1.1-1.6.4-5.5 1.7-4.5 4.5-6.3 4.5-2.9zm196.3-.2c2.2 1.6 1.9 4.3-.5 5.9-1.4.9-2.3.6-4.4-1.6-1.7-1.6-2.4-3.2-2.1-4.2.8-2 4.6-2 7-.1zm-303.5 1.2c-.5 2.5-2.8 2.8-2.8.4 0-1.2.6-2.1 1.6-2.1.9 0 1.4.7 1.2 1.7zm-62 .5c-.7 1.9-3.8 2.2-3.8.4 0-1 .9-1.6 2.1-1.6 1.2 0 1.9.5 1.7 1.2zm91.2 7.8c0 1.3-.7 2-2 2-1.9 0-2.7-2-1.3-3.3 1.3-1.4 3.3-.6 3.3 1.3zm245.4 13.6c2.6 1 2 4.4-.8 4.4s-4-1.4-3.2-3.5c.6-1.6 1.6-1.8 4-.9zm-140.4 2.9c0 .8-.7 1.5-1.5 1.5s-1.5-.7-1.5-1.5.7-1.5 1.5-1.5 1.5.7 1.5 1.5zm122.8.6c.2 1.1-.6 1.8-2.5 2.2-1.5.3-4.1.9-5.6 1.3-2.5.6-2.8.4-2.5-1.2.2-1.1 1.3-2 2.8-2.2 1.4-.2 2.9-.8 3.5-1.3 1.4-1.4 3.9-.6 4.3 1.2zm-100.8 7c0 1.6-.5 2-2.7 1.7-1.7-.2-2.9-1-3.1-2.1-.3-1.3.3-1.7 2.7-1.7 2.5 0 3.1.4 3.1 2.1zm24.2 7.7c-.1 1.8.2 3.2.8 3.2.5 0 1 1.3 1 3 0 2.3-.5 3-1.9 3-2.4 0-4.5-2.5-3.8-4.5.4-.8.2-1.7-.3-2-2.6-1.6 0-6.9 3-6.2 1 .2 1.4 1.3 1.2 3.5zm6.8 1.2c0 1.3-.7 2-2 2-1.9 0-2.7-2-1.3-3.3 1.3-1.4 3.3-.6 3.3 1.3zM546.9 1014.7c-1.3 1.6-1.2 1.7.4.4.9-.7 1.7-1.5 1.7-1.7 0-.8-.8-.3-2.1 1.3z"/><path d="M1453.7 1027.6c-1.2 1.3-.8 5.1.8 6.4 2.1 1.8 4.7-.5 4.3-3.9-.3-2.6-3.5-4.1-5.1-2.5zM1447.2 1045.9c-1.9 1.1-1.1 4.5 1.1 4.9.9.2 2-.4 2.3-1.3.9-2.1-1.6-4.7-3.4-3.6zM1458.1 1049c-1.6.9-.6 4.6 1.4 5.4 1.6.6 4.8-2.1 4.2-3.7-.5-1.5-4.2-2.6-5.6-1.7zM1432.2 1050.2c-1.5 1.5-1.6 6.8-.2 6.8 2 0 6-4.8 5.4-6.4-.7-1.9-3.5-2.1-5.2-.4zM1428.1 1058.4c-.7.8-1 2-.6 2.6.9 1.5 3.5 1.2 3.5-.5 0-.8 0-1.8.1-2.2.1-1.4-1.8-1.3-3 .1zM1418 1066.8c0 2.7 2 4.2 5.7 4.2 2.6 0 3.3-.4 3.3-2 0-2.3-2.8-4-6.4-4-1.8 0-2.6.5-2.6 1.8zM1416.1 1091.8c-1.3 2.5.2 4.4 3 4 3.1-.4 3.2-3.8.2-4.9-1.7-.6-2.5-.4-3.2.9zM560 1112.5c-1.1 1.3-1 1.9.5 3.5 2.3 2.5 5.8 1 5.3-2.3-.4-2.7-3.9-3.4-5.8-1.2zM1242 1138.4c0 .9.5 1.6 1 1.6.6 0 1-.4 1-.9 0-.6-.4-1.3-1-1.6-.5-.3-1 .1-1 .9zM575.6 1140.5c-1.4 1.3-2.6 2.6-2.6 2.9 0 1.3 5.7 5.6 7.3 5.6 6.2 0 7.8-5.8 2.5-9-4.1-2.5-4-2.5-7.2.5zM1417.1 1153.9c-1.8 1.2-.5 4.8 2 5.6 2.4.8 5.9-.3 5.9-1.8-.1-3.2-5.1-5.6-7.9-3.8zM1374.5 1177.6c-1.9 3-1.9 5.4 0 5.4 1.8 0 1.9.9.5 4.5-1.1 2.8.6 4.3 3.6 3.1 1.5-.6 1.5-.8 0-3.1-2-3-2-4.5-.1-4.5 1.5 0 3.1-4.2 2.1-5.8-1.3-2.2-4.5-2-6.1.4zM1414.7 1176.2c-2.2 1.2-2.2 4.5.1 5.6 2.7 1.5 6.4-.4 6-2.9-.4-2.6-3.7-4.1-6.1-2.7zM1393.3 1184.6c-.3.8-.1 2 .5 2.6 1.6 1.6 4.7.5 5-2 .3-1.8-.1-2.2-2.3-2.2-1.4 0-2.8.7-3.2 1.6zM1204.8 1184.7c-.1.5-2.2 2-4.5 3.6-2.7 1.7-4.5 3.7-4.9 5.5-1 4.9-1.3 5.2-4.3 5.2-2.1 0-3.5.7-4.7 2.5-.9 1.3-3.1 3.4-4.9 4.5-1.8 1.1-3.8 3.4-4.5 5.1-.9 2-2.9 3.8-6.2 5.5-2.6 1.3-7.3 4.7-10.3 7.4-3 2.8-6.1 5-6.8 5-.7 0-3.9 2-7 4.3-3.2 2.4-9.3 6.1-13.4 8.3-5.7 2.9-8.5 5.1-11.4 8.9-2 2.7-3.9 6.1-4.1 7.5-.3 2.4-.7 2.5-8.1 3-7.2.5-8.1.8-10.1 3.3s-2.7 2.8-5.9 2.2c-3.3-.6-3.8-.4-4.8 1.9-1.4 2.9-1.1 2.8-5.9 3.2-1.9.1-4 1-4.7 2-.9 1.3-2.1 1.5-5.1 1-2.9-.4-4.3-.2-5.2.9-1.4 1.7-.5 3.5 1.6 3.5 2.7 0 8.4 5.1 8.4 7.4 0 2.7-1.8 4.6-4.2 4.6-1.4 0-1.8-.6-1.6-2.8.3-2.5 0-2.7-2.7-2.4-1.6.2-3.4-.3-4-1-1.4-1.9-6.2-4.8-7.8-4.8-.7 0-3.6 1.1-6.5 2.5l-5.1 2.5.4 11.6c.3 6.4 1 13.4 1.5 15.5.8 2.7.8 6.4 0 12.1-1.7 13.9-4 39.3-4 44.6 0 2.8.5 6.1 1.1 7.4.7 1.6.7 6.8.2 15.8-.8 13.2-.4 17.4 2 25.4 1.4 4.6 1.4 4.6 14.2 8.5 11.5 3.5 13.5 3.8 13.5 1.5 0-2.4 5.7-1 9.1 2.2l2.7 2.6 3.2-1.8c3.2-1.9 3.2-1.9 4.7.3 1 1.5 2.6 2.3 4.4 2.3 1.5 0 3.1.4 3.4 1 .3.5 2.2 1 4.1 1 2.8 0 3.6.5 4.4 2.5 1 2.7 3 3.4 3 1.1 0-1.8 5.4-4 8.5-3.4 1.6.4 2.5.1 2.5-.8 0-.7.5-1.6 1-1.9 1.7-1.1 5 .5 5 2.5 0 1 .7 2.6 1.6 3.5 1.5 1.5 1.8 1.5 3.5-.1 2.3-2.1 4.9-1.2 4.9 1.8.1 1.3.7 3.4 1.5 4.8l1.4 2.5.1-2.6c0-2 .8-3 3-3.9 1.6-.7 3.9-1 5.1-.7 4.4 1.2 2.9-3.6-3.5-11.1-1.8-2-1.8-2.4-.4-3.8s1.9-1.4 5.9.7c3.6 1.8 5.7 2.2 11.5 2 6.6-.2 7.2-.1 8.7 2.2 1.2 1.8 2.2 2.4 3.7 2 1.6-.4 2.3 0 2.7 1.6.3 1.1.9 2.1 1.4 2.1 1.8 0 .8 3.7-1.5 5.9-1.7 1.6-3.3 2.2-5.7 1.9-2.8-.2-3.4 0-3.4 1.7 0 1.8.6 2 6.7 1.7 5.3-.3 7.5 0 10 1.6 2.8 1.6 5 1.9 10 1.3.3-.1.4-1 .1-2.1-.8-2.8 3.3-2.7 6.5.2 2.1 2 2.5 2.1 3.5.8 2.6-3.2 6.2-4.2 13.3-3.5 3.8.3 8.6.6 10.7.5 2.2 0 5.3.4 7.1 1 3.1 1 24.7-.1 29.1-1.5 1.3-.4 3.3.2 5.7 1.9 3.6 2.4 3.6 2.4 5.4.4 1.5-1.5 2.9-1.9 6.9-1.7 2.7.2 7.3-.1 10.2-.5 4-.6 6-.4 8.4.8 2.4 1.2 3.5 1.3 4.5.5.8-.7 3.3-.9 6.1-.6 9.1 1.1 14.8 1.1 14.6.1-.1-.5-.5-2.2-.8-3.7-1-3.8 1.7-3.6 5.2.5 5.4 6.2 6 6.6 9.3 6.3 1.8-.1 3.5-.7 3.9-1.2.7-1.1 5.1-2.2 12.1-2.9 7.2-.8 9-1.3 9-2.9 0-2 2.9-1.9 3.6 0 .8 2 2.1 1.9 2.6-.3.9-3.2 18.4-7.2 30.8-7.1 5.4.1 10-.4 12.7-1.4 2.6-1 8.2-1.6 15-1.8 15.4-.3 19.2-.6 24.7-1.9 4.4-1.1 5.1-1 6.2.5 1.2 1.7 1.4 1.7 2 .2 1-2.7 5.3-2.1 6.4.8.5 1.4 1.6 2.5 2.3 2.5 1 0 1.6-2.1 2.1-7.7 1-11.8 1-11.6-3.4-14.1-4.1-2.3-5.3-5.5-2.4-6.6 2.2-.8 8.4 2 8.4 3.8 0 2.8 4.2 4.5 11 4.4 22.2 0 23-.1 23-1.4 0-2.1-1.8-2.6-10.4-2.9-8.5-.2-12.3-1.2-14.5-3.9-.7-.9-2.6-1.6-4.2-1.6-2.3 0-2.8-.5-3.1-2.8-.3-2.5-.7-2.8-7.4-3.8-3.9-.5-8-.7-9-.3-1 .4-3.8.8-6.2.8-2.8.1-4.5.6-4.8 1.6-.3.8-2.4 2-4.6 2.5-2.1.6-4.2 1.8-4.5 2.6-.7 1.8-2.7 1.8-4.3-.1-.7-.8-3-2-5.2-2.5-3.2-.9-4.8-.8-8.3.6-2.5.9-5.4 1.4-6.5 1.1-3.5-.9-7.8 1.2-9.9 4.9-1.4 2.3-3 3.6-5.1 4-1.6.4-3.5 1.3-4.1 2-1.7 2.1-5.9 1.8-5.9-.4 0-1 .5-2.3 1.2-3 2.2-2.2-.1-2.4-5.9-.3-4.1 1.4-7.6 1.9-11.8 1.6-7.3-.4-16.8 1.1-21.3 3.3-3.2 1.6-3.4 1.6-4.8-.3-2.5-3.4-1.4-6 2.7-6.3 2.7-.2 3.9-.9 4.7-2.8 1.1-2.3 1.5-2.4 6.9-1.8 3.2.3 7 1 8.5 1.6 2.4.9 3.1.7 4.5-1.1 1.3-1.5 3.7-2.3 9.3-3.1 9.7-1.4 10.8-1.7 11.5-4.1.4-1 2.1-2.6 3.8-3.4 1.8-.8 4.8-2.5 6.7-3.6 2.3-1.4 5.5-2.3 9.2-2.5 6.9-.3 7.6-.7 9.4-5 1.5-3.5 4.5-4.5 8.2-2.5.9.5 3.6 1.2 6 1.6 4.1.7 4.2.6 4.8-2.4.4-1.6 1.5-3.8 2.6-4.7 1.8-1.7 2-1.7 4.7-.1 1.9 1.1 5.1 1.7 9 1.7 5.8 0 6.1-.2 7.6-3.1 1.4-2.7 2-3 4.3-2.3 3.2.9 4.8.8 12.7-.5 3.3-.5 8.4-1.3 11.3-1.7 5.2-.7 5.2-.7 5.2 2 0 1.5.4 3.6 1 4.6.8 1.5 1.3 1.6 3.5.7 2.1-1 2.5-1.9 2.5-5.4 0-4.1.1-4.2 3.8-4.5 3.4-.3 3.7-.6 4.2-3.8.4-3.1.9-3.6 4-4 2.3-.3 3.1-.8 2.3-1.3-.7-.5-1.3-1.9-1.3-3.3 0-1.9.5-2.4 2.4-2.4 3.4 0 3.8-1 2.5-6.6-2-9-2.9-21.7-1.7-23.1.8-.9.7-1.7-.2-2.8-1.2-1.4-1.6-1.3-4 1-2.5 2.4-2.7 3-1.7 5.6.8 2.1.9 3.4.1 4.7-1.2 1.9-5.4 2.9-5.4 1.3 0-.6-.9-1.1-2-1.1-2.2 0-2.7 2.9-.9 4.7 1.5 1.5.1 5.3-2 5.3-1 0-2.1-.3-2.4-.6-1-1-10.9-4.3-12.9-4.4-1 0-1.8.4-1.8 1 0 1.4 2.9 2.7 7.8 3.5 4.2.7 5.6 2.7 2.6 3.9-2.5 1-12.7-.5-14.6-2.1-1.3-1.1-2.9-1.3-6.7-.8-3 .4-5.7.2-7-.5-1.8-.9-2.1-.8-2.1 1 0 2.4-2.5 2.6-6.6.5s-6.9-1.9-8.6.7l-1.5 2.2-6.1-4.9c-5.6-4.3-6.5-4.7-8.7-3.7-3.2 1.5-17.5-.2-19-2.2-.6-.7-2.8-1.6-5-1.9-10.1-1.5-12.2-2.1-15-4.1-1.6-1.1-4.8-2.1-7-2.2-2.2-.1-6-.8-8.5-1.5-2.5-.6-7-1.2-10.2-1.3-4.9-.1-5.9-.5-7.8-2.9-2.4-3-4.5-3.4-7.4-1.2-1.4 1-3.5 1.3-7.5.9-5.1-.5-6-.3-10.1 2.5-2.5 1.7-4.8 3.1-5.2 3.1-.3 0-2.1-1.2-3.9-2.7-2.4-2.1-4.5-2.8-7.8-2.9-2.5-.1-7.3-1.2-10.6-2.4s-7.7-2.2-9.8-2.1c-2.4.1-4.9-.6-6.7-1.9-1.5-1.1-4-2-5.3-2-1.4 0-2.8-.4-3.1-.9-.5-.8-4.3-1.7-10.1-2.4-1.2-.1-2.1.5-2.3 1.5-.2 1.1.3 1.8 1.2 1.8 1.4 0 11.7 7.9 15.9 12.1 2.4 2.5 2.1 5.6-.7 7.4-2 1.3-2.9 1.4-4.7.4-2-1-2.5-.8-4.5 1.6-2 2.5-2.5 2.7-5.1 1.7-4.8-1.8-9.1-2.4-9.8-1.3-.3.6-2 1.8-3.6 2.7-2.9 1.4-3.1 1.4-6-1.1-3.5-2.9-5.1-3.1-8.2-1-1.7 1.1-4.5 1.3-11.7.9-5.2-.2-11.4-.4-13.7-.4-3.4.1-4.7-.5-6.5-2.5-1.3-1.5-2.6-3.6-3-4.8-1.3-4.5-.9-5.5 2.7-6.1 3.6-.7 4.4-2.3 2.4-4.3-1.8-1.8-.3-4.3 2.5-4.3 1.6 0 3.2-1 4.6-2.9 1.1-1.6 3-3.1 4.2-3.3 2.5-.4 3.1-1.7 1.8-3.8-.7-1.2-1.3-1.1-3.5 1-2 1.9-3 2.2-4.3 1.4-3.1-2-2.6-5.2 1-7.4 3.8-2.3 6.4-2.6 7.1-.8.4 1 .8 1 2.3 0 3.4-2.2 4.6-2.5 6.4-1.4 2.4 1.5 4-.3 4-4.5 0-2.6.4-3.3 1.9-3.3 1.1 0 2.7 1 3.5 2.2l1.6 2.2 2.5-2.4c1.4-1.3 2.5-3.3 2.5-4.5 0-2.5 7-7.8 15.6-11.8 4-1.9 4.8-3.2 3.4-5.7-1.9-3.5-13.6-8.1-28.5-11-3.3-.7-7.1-1.6-8.5-2.1-1.4-.5-5.4-1.3-9-1.9-9.3-1.4-15-2.6-15.7-3.4-.4-.4.1-2 1-3.5 2.1-3.6 2.1-4.8.2-8.5-.8-1.6-1.8-4.7-2.1-7-.4-2.2-1.5-5.7-2.4-7.6-1-1.9-2.1-6.4-2.5-10-.4-3.5-1.1-7.1-1.6-8-.4-.8-1.8-4.9-3-9-3-10.1-3.9-12-6-12-.9 0-1.9.3-2.1.7zm-25 38c-.5 2.5-2.8 2.8-2.8.4 0-1.2.6-2.1 1.6-2.1.9 0 1.4.7 1.2 1.7zm-51 37.1c.2 1.3-.3 2.5-1.3 2.8-2.2.9-2.9-.1-2.1-3.1.8-3.1 3-2.8 3.4.3zm18 7.4c-.6 1.6-3.6 3.4-4.4 2.6-.3-.4-.4-1.4-.1-2.3.7-1.7 5.1-2.1 4.5-.3zm-48.8 2.3c0 .8-.9 1.5-2 1.5s-2-.7-2-1.5.9-1.5 2-1.5 2 .7 2 1.5zm124.5 12.6c.4.6-.2 1.9-1.4 3-2.3 2.1-4.6 2.6-3.7.6.3-.6.9-2 1.2-3 .7-1.9 2.9-2.3 3.9-.6zm-134.5 4.5c0 .8-1 1.4-2.5 1.4-2.3 0-3.4-1.8-1.9-3.2 1-1 4.4.4 4.4 1.8zm157.8 5.1c-.2 1-1.2 1.8-2.3 1.8-1.1 0-2.1-.8-2.3-1.8-.3-1.3.3-1.7 2.3-1.7 2 0 2.6.4 2.3 1.7zm-19.8 8.3c0 1.3-.7 2-2 2s-2-.7-2-2 .7-2 2-2 2 .7 2 2zm-34.4 2.1c1.9 1.1 3.4 2.7 3.4 3.5 0 1.6-3.6 1.9-4.5.4-.3-.6-1.6-1-2.9-1-2.5 0-4.6-1.7-4.6-3.7s4.9-1.6 8.6.8zm35.4 3.9c0 1.1-.7 2-1.5 2s-1.5-.9-1.5-2 .7-2 1.5-2 1.5.9 1.5 2zm-10.2 3.7c.3 1.7-.3 2.4-2.2 2.9-3.3.8-4.6-.1-4.6-3.2 0-2.2.4-2.5 3.3-2.2 2.4.2 3.3.8 3.5 2.5zm-18.8 2.8c0 2.7-2.3 6.5-3.9 6.5-2.2-.1-5.1-2.4-5.1-4.2 0-1.4 4-3.5 7.3-3.7.9-.1 1.7.6 1.7 1.4zm24 2.5c0 1.3-.7 2-2 2-1.9 0-2.7-2-1.3-3.3 1.3-1.4 3.3-.6 3.3 1.3zm-12 4c0 1.1-.7 2.3-1.5 2.7-2.1.8-2.8-.1-2-2.6.8-2.7 3.5-2.7 3.5-.1zm9.8.2c2.4 2.4 1.4 4.1-2 3.4-3.8-.8-4.2-1.1-3.5-3.1.7-1.8 3.8-2 5.5-.3zm-25.8 4.3c0 .8-.9 1.5-2 1.5s-2-.7-2-1.5.9-1.5 2-1.5 2 .7 2 1.5zm191.6 19.1c7.7 3.4 15.5 5.4 18.3 4.7 1.1-.3 2.8 0 3.7.8.8.7 3 1.4 4.7 1.5 1.8.1 5.2.7 7.6 1.3 2.4.7 7.7 1.2 11.7 1.3 6.5.2 7.4.4 7.4 2 0 1.3-.6 1.8-1.7 1.6-1-.1-2.3.1-2.9.4-.6.4-6.7.8-13.5 1-11.8.2-12.6.4-16.3 3-4.4 3.2-6.2 3.4-12.8 1.4-2.5-.8-5.6-1.2-6.7-.9-1.2.3-3.5 0-5.1-.7-3.7-1.5-4.9-.7-3.1 2.2 2.2 3.5.2 4.1-10.1 3.2-9.3-.9-9.3-.9-9.8-3.9-.4-2.4-1.2-3.1-4.2-3.8-3.1-.7-4.1-.5-6.8 1.5l-3.2 2.3-2.4-2.8c-2.8-3.3-2.9-5.1-.5-9.2 2-3.5 5.2-4.3 8.6-2.1 2.2 1.4 2.8 1.4 7.8-.9 3-1.3 5.7-3.1 6-3.9.7-1.9 6.7-2.2 8.4-.5.8.8 1.9.6 3.9-.5 3.9-2 4.2-2 11 1zm77.4 59.9c0 .9 1 2.9 2.1 4.5 2.5 3.3 2.2 8.1-.7 12.5-1.6 2.5-2.1 2.6-6.3 2-2.5-.4-5.4-1.1-6.4-1.7-1-.5-4.2-.6-7.1-.3-4.4.6-5.4.4-5.9-.9-.4-.9-1.3-1.6-2.2-1.6-.8 0-1.5-.9-1.5-2 0-1.6.7-2 3.8-2 2 0 4.3.4 5.1.9 1.7 1.1 7.9-.3 9.9-2.3 1.3-1.2 1.3-1.8.3-3-1.9-2.2-.6-4.6 2.4-4.6 1.4 0 2.8-.7 3.1-1.5.8-2 3.4-1.9 3.4 0zm-32 16.4c0 2-3.2 3.7-5 2.6-.5-.3-1-1.5-1-2.6 0-1.4.7-1.9 3-1.9s3 .5 3 1.9zm-289 4.2c1.4 2.4-.2 4.9-3.1 4.9-1 0-2.1.4-2.4 1-1 1.6-4.5 1.2-4.5-.5 0-.8.9-1.5 2-1.5 1.3 0 2-.7 2-1.8 0-4 4.2-5.5 6-2.1zm51.4 1.3c4.6 4.3 4.6 6.3-.1 8.2-3 1.3-4 1.3-6 .3-1.9-1-2.3-2-2.3-6 0-4.1.3-4.8 2.3-5.2 1.2-.2 2.3-.5 2.4-.6.1 0 1.8 1.4 3.7 3.3zm228.6-1.4c0 2.4-2.6 3.8-4.2 2.2-1.6-1.6-.2-4.2 2.2-4.2 1.3 0 2 .7 2 2zm-75.5 19.5c0 1.3-.8 2.1-2.2 2.3-1.7.3-2.3-.2-2.3-1.6 0-1 .3-2.2.7-2.6 1.3-1.3 3.8-.1 3.8 1.9z"/><path d="M1218 1187c0 .7 1.1 2.5 2.5 4.2 1.5 1.7 2.5 4.2 2.5 6 0 1.6.6 4.2 1.4 5.6 3.3 6.5 4.6 10.6 4.6 14.7 0 2.4.5 5.6 1 7.1.6 1.5 1.2 6.7 1.3 11.6l.2 8.8 3.3-.6c2.7-.5 3.8-.2 6.2 2.1 2.5 2.4 3.3 2.6 6.9 2 2.9-.5 4.7-.3 5.8.6 1.1.9 3.7 1.3 8.1 1 5.5-.2 6.8 0 8.1 1.7 2.1 2.5 10.7 5.2 17 5.2 4.6 0 5.1-.2 5.1-2.3-.1-1.2-.7-3.3-1.5-4.7-.8-1.4-1.4-3.7-1.5-5.1 0-1.5-.9-3.8-2-5.2-1.5-1.9-2-4-2-8.9 0-3.5-.6-7.5-1.5-9.1-.8-1.5-1.7-5.5-2.1-9-.4-3.4-1.1-7-1.5-7.9-1.1-2-6.4-4.8-9.2-4.8-1.9 0-8-2.4-13-5.1-1-.6-5-1-8.8-1-4.7 0-8.4-.7-11.5-2-2.5-1.1-6.8-2.7-9.7-3.4-2.9-.8-6.2-1.7-7.4-2.1-1.5-.4-2.3-.2-2.3.6zM1325.7 1249.6c-.4.4-.7 1.6-.7 2.6 0 1.4.6 1.9 2.3 1.6 1.4-.2 2.2-1 2.2-2.3 0-2-2.5-3.2-3.8-1.9zM952 1270c0 .5.5 1 1 1 .6 0 1-.5 1-1 0-.6-.4-1-1-1-.5 0-1 .4-1 1zM963 1283.5c0 .8.5 1.5 1 1.5.6 0 1-.7 1-1.5s-.4-1.5-1-1.5c-.5 0-1 .7-1 1.5zM990.6 1284c-4 .8-6.6 3.1-6.6 6 0 1.4 3.9 6.6 10.6 14.2 1.4 1.6 2.4 4 2.4 5.7 0 2.7.4 3.1 3.7 3.7 3.9.7 5 0 8.4-6.4 1-1.6 5.3-6.1 9.8-9.9 4.4-3.7 8.1-7.3 8.1-8 0-1.3-.6-1.3-14.2-1.4-7.4 0-9.4-.4-13-2.4-2.4-1.4-4.5-2.4-4.8-2.4-.3.1-2.3.5-4.4.9zM988 1304.5c1.3 1.4 2.5 2.5 2.7 2.5.2 0-.4-1.1-1.3-2.5s-2.1-2.5-2.7-2.5c-.6 0 0 1.1 1.3 2.5zM1032.6 1305.5c-.3.9-2 2.2-3.8 3-1.8.7-4.2 2.4-5.4 3.7-3.4 3.8-8.4 11.5-8.4 13.1 0 1.2 3.3 4.5 16.8 16.8 1.7 1.6 3.2 4 3.2 5.2 0 2.6 1.6 5.4 2.5 4.5 1.4-1.4 1.9-21.3.9-37.6-.6-9.8-.7-10.2-2.9-10.2-1.3 0-2.6.7-2.9 1.5zM696.6 1311.6c-.3.9-.6 1.7-.6 1.9 0 .1 2 .8 4.4 1.5 4.4 1.2 8.5 4.5 12 9.6 1.1 1.5 2.1 2.3 2.4 1.6.7-2.1 3.6-1.3 5.5 1.6 1.7 2.4 2.6 2.7 7.4 2.8 4.2.1 6 .7 7.9 2.5 1.9 1.8 2.4 1.9 2.4.7 0-1.7-9-7.8-11.4-7.8-.7 0-1.9-.7-2.6-1.5-.7-.8-1.6-1.5-2.1-1.5-1 0-7.8-4.4-9.9-6.4-2-1.9-11.4-6.6-13.3-6.6-.8 0-1.8.7-2.1 1.6zM1011 1320c-.8 1.6-.8 2 .3 2 .8 0 1.7-.9 2-2 .3-1.1.1-2-.4-2-.4 0-1.3.9-1.9 2zM1229.2 1326.2c-2 2-1.4 4 1.1 3.6 1.4-.2 2.2-1 2.2-2.2 0-2.4-1.6-3.1-3.3-1.4zM998.1 1330.9c-1.3 1-2.2 2.3-2 2.8.2.6 1.8-.3 3.4-1.8 3.3-3.2 2.4-3.9-1.4-1zM1002 1335.5c-1.9 1.3-3.9 2.4-4.3 2.4-.5.1-2 1-3.4 2.1-3.3 2.6-5.1 2.5-5.5-.3-.3-1.9-.6-1.7-2.1 1.6-.9 2-4.3 6.2-7.5 9.2-7.7 7.1-10.2 12.3-10.2 21.2 0 3.8.4 8.2.9 9.9.5 1.8.6 8.4.1 15-.7 10.5-.1 23.3 1.6 33.1.6 3.9 2.6 4.3 4.2.8 1.2-2.6 3.6-3.2 6.1-1.6 2.4 1.5 4 .1 6.7-5.9 3.7-8.4 8.9-12.1 12.1-8.9 1.8 1.8 10.1 0 10.9-2.3.4-1.4 1.2-1.8 2.5-1.4 1 .3 2.8.9 3.9 1.2 1.4.5 2 .2 2-1 0-.9.7-1.6 1.5-1.6s1.5.6 1.5 1.4c0 1.8 3 3 4.4 1.6 1.8-1.8 5-1.1 7.3 1.7s2.3 2.8 3.9.8c1.3-1.7 1.5-4.9 1.1-22.5-.4-22-1.1-26-5.4-30.6-1.5-1.6-3.8-4.5-5.1-6.4-3.8-5.7-20.2-22-22-21.9-1 0-3.3 1.1-5.2 2.4zM1486 1334c-1.3.8-1.3 1.2.3 2.7 1.5 1.6 1.9 1.6 2.7.3 1.8-2.8-.2-4.8-3-3zM648.5 1352.9c-.7 1.2 1.2 2.4 2.5 1.6 1.1-.7.4-2.5-1-2.5-.5 0-1.1.4-1.5.9zM636.1 1354.3c-.6.8-.8 1.7-.4 2 1.3 1.3 3.1.7 3.6-1.3.6-2.3-1.4-2.7-3.2-.7zM661.8 1354.7c-1.4 1.7-.1 3.1 3.2 3.5 1.9.2 2.6-.2 2.8-1.8.2-1.6-.3-2.3-2.2-2.6-1.5-.3-3.1.1-3.8.9zM624 1356.1c0 .5.5.7 1 .4.6-.3 1-.8 1-1.1 0-.2-.4-.4-1-.4-.5 0-1 .5-1 1.1zM526.7 1356.6c-1.4 1.4-.7 2.5 1.3 2.2 1.2-.2 2.1-.8 2.1-1.3 0-1.2-2.4-1.8-3.4-.9zM401.4 1375.1c-.4.7.1 1.8 1.1 2.6 2.7 1.9 3.7 1.6 3.3-.9-.3-2.5-3.2-3.6-4.4-1.7zM407 1381c0 1.5.5 2 1.8 1.8.9-.2 1.7-1 1.7-1.8s-.8-1.6-1.7-1.8c-1.3-.2-1.8.3-1.8 1.8zM416.3 1383.7c.9.9 1.9 1.4 2.3 1.1 1-1-.6-2.8-2.4-2.8-1.5 0-1.5.1.1 1.7zM428.5 1387.9c-.7 1.2 1.2 2.4 2.5 1.6 1.1-.7.4-2.5-1-2.5-.5 0-1.1.4-1.5.9zM610 1393.6c0 .9.7 1.4 1.7 1.2 2.5-.5 2.8-2.8.4-2.8-1.2 0-2.1.6-2.1 1.6zM1544 1400.8c0 1.6-.7 3.5-1.5 4.2-1.7 1.4-2 4-.4 4 .6 0 1.9-.5 3-1 2.3-1.3 2.6-7.2.4-9-1.3-1.1-1.5-.8-1.5 1.8zM425 1401.5c0 .9 6.5 3.2 7.8 2.7 2.4-.8-.9-3.2-4.4-3.2-1.9 0-3.4.2-3.4.5zM437.5 1404c-.3.5.1 1 .9 1 .9 0 1.6-.5 1.6-1 0-.6-.4-1-.9-1-.6 0-1.3.4-1.6 1zM645.5 1406.1c-.8 2.3.7 4.5 2.4 3.5.6-.4 1.1-1.8 1.1-3.2 0-3-2.6-3.2-3.5-.3zM577.3 1405.7c-1.8.7-1.6 3.3.3 3.3 2.3 0 5.5-2 4.9-3.1-.6-1-3.1-1.1-5.2-.2zM1405 1406c0 .5.5 1 1.1 1 .5 0 .7-.5.4-1-.3-.6-.8-1-1.1-1-.2 0-.4.4-.4 1zM514.7 1410.6c-.4.4-.7 1.5-.7 2.5 0 1.5.7 1.8 3.8 1.7 2-.1 5.9.3 8.5.9 4.6 1 4.8 1 4.5-1.1-.2-1.6-1.2-2.2-4.3-2.7-2.2-.3-5.6-.9-7.5-1.3-1.9-.4-3.9-.4-4.3 0zM555.6 1412.6c-1.1 1.6-2.7 3.4-3.5 4.1-2.4 1.7-.7 2.6 4.9 2.6 3.4-.1 5.7-.7 7-1.8 1.2-1.1 2.9-1.6 4.5-1.3 3 .6 3.3-1.1.7-3.5-2.1-1.9-5.7-2.2-6.7-.7-1 1.6-4.3 1.1-4.7-.7-.2-1.3-.7-1.1-2.2 1.3zM597.4 1415.5c-.7 1.7-4.4 2.1-4.4.5 0-1.5-3.6-1.2-4.9.4-.8 1-.9 1.6-.1 2.1 1.8 1.1 1.1 3.5-1 3.5-1.1 0-2-.5-2-1 0-3.4-7.6-7.3-8.6-4.5-.8 1.9 3 5.5 5.8 5.5 1.2 0 1.8.7 1.8 2.4 0 1.4.7 2.6 1.8 3 .9.3 2.3.9 3 1.2.8.4 1.2-.4 1.2-2.3.1-2.1 1-3.4 3.8-5.1l3.6-2.4 1.7 2.1c1.9 2.3 2 2.2 4.7-2.8 1-2 1-2.6 0-3.3-2.1-1.3-5.8-.9-6.4.7zM631 1415c0 .5.5 1 1 1 .6 0 1-.5 1-1 0-.6-.4-1-1-1-.5 0-1 .4-1 1zM640.7 1417c-.3 1.4-1.7 2.1-4.6 2.6-5.4.9-5.2 3.2.4 5.3 2.2.8 4.1 1.8 4.3 2.2.2.4 1.8.2 3.5-.6 5.7-2.3 11.2-2.8 12.6-1.1.9 1 2.2 1.4 3.7 1 1.3-.3 3.6 0 5.2.8 3.2 1.7 10.8 1.6 12.5-.1.6-.6 2.4-1.1 4-1.1 2.4 0 2.8-.4 2.5-2.3-.3-1.9-.8-2.2-4.6-1.9-3.1.2-4.4-.2-4.8-1.3-.8-2-1.9-1.9-7.1.6-3.9 1.9-4.9 2-9 1-3.2-.9-4.9-.9-5.6-.2-1.9 1.9-4.6 1.2-6.4-1.7-1.8-2.7-4.3-5.1-5.4-5.2-.4 0-.9.9-1.2 2zM1517 1415.9c0 .6.5 1.3 1 1.6.6.3 1-.1 1-.9 0-.9-.4-1.6-1-1.6-.5 0-1 .4-1 .9zM537 1417.5c0 1.3 3.6 3.5 5.6 3.5 1.1 0 .2-2.4-1.3-3.6-2.4-1.8-4.3-1.7-4.3.1zM608.1 1416.9c-1.1.7-.9 1 .8 1.6 2.5.8 3.6.2 2.6-1.4-.8-1.3-1.5-1.4-3.4-.2zM1528.7 1417.8c-2.4 2.6-2.1 4.1 1 4.8 3.9 1 10.7-1.7 11.1-4.4.4-2.3-2.1-3.1-3.3-1.2-.3.5-1.5 1-2.6 1-1 0-1.9-.5-1.9-1 0-1.6-2.6-1.1-4.3.8zM570.4 1421.5c-.7 1.8.3 3.5 2.2 3.5.8 0 1.4-1 1.4-2.5 0-2.7-2.7-3.5-3.6-1zM614.9 1422.9c2.8 3.8 2.7 6.7-.1 7.5-2 .5-2.1.7-.8 2 2.6 2.5 6.7.9 8.9-3.5l2.1-3.9h-4c-3.6 0-4-.3-4-2.5 0-1.9-.5-2.5-2.1-2.5h-2l2 2.9zM877.5 1429c.3.5.8 1 1.1 1 .2 0 .4-.5.4-1 0-.6-.5-1-1.1-1-.5 0-.7.4-.4 1zM656.2 1430.8c-3.6 1.1-2.7 2.6 1.8 3.3 4.6.6 6.3-.7 3.5-2.8-2-1.4-1.9-1.4-5.3-.5zM673 1433.5c0 .8.7 1.5 1.5 1.5s1.5-.7 1.5-1.5-.7-1.5-1.5-1.5-1.5.7-1.5 1.5zM842.8 1433.7c1.2.2 2.2 1.1 2.2 1.9 0 .9 1.1 1.4 3 1.4 1.7 0 3-.4 3-.8 0-1.9-2.7-3.2-6.4-3.1-2.3.1-3.1.4-1.8.6zM723.5 1437.9c-.3.5-.1 1.2.5 1.6.5.3 1 1.9 1 3.6 0 3.2 1.1 3.7 3 1.4 1.8-2.2 5-1.9 5 .5 0 1.1.4 2 .9 2 1.1 0 .3-3.9-1.2-5.8-.5-.6-2-1.2-3.3-1.2-1.5 0-2.4-.6-2.4-1.5 0-1.6-2.5-2.1-3.5-.6zM1164 1439c0 1.1.6 2 1.3 2 1.9 0 2.7-1 2-2.6-.8-2.1-3.3-1.7-3.3.6zM1099.2 1439.2c.7 1.9 3.8 2.2 3.8.4 0-1-.9-1.6-2.1-1.6-1.2 0-1.9.5-1.7 1.2zM1173 1439c0 .5.5 1 1 1 .6 0 1-.5 1-1 0-.6-.4-1-1-1-.5 0-1 .4-1 1zM751.7 1442.9c-3.6.6-5.4 2.7-2.2 2.5.8 0 3.3-.1 5.5-.2 3-.2 3.8-.5 3.4-1.7-.4-.8-1.1-1.4-1.8-1.4-.6.1-2.8.5-4.9.8zM1214.6 1451.1c2 2.3 5.4 2.8 3.5.5-.6-.8-2.1-1.6-3.2-1.9-2-.5-2-.5-.3 1.4zM1223.3 1450.2c.2.7 1 1.3 1.7 1.3s1.5-.6 1.8-1.3c.2-.7-.5-1.2-1.8-1.2s-2 .5-1.7 1.2zM746.2 1451.4c-.1 1.1-.9 2.7-1.8 3.7-2 2.2-1.2 4.9 1.3 4.9 1 0 2.8.7 4 1.5 1.4 1 2.4 1.2 2.8.5.3-.5 2.3-1 4.4-1 4.6 0 8.4-2.4 6.1-4-.8-.5-3.2-1.3-5.2-1.6-2.2-.4-3.9-1.3-4.1-2.3-.3-1.1-.5-.8-.6.6-.1 1.8-.7 2.3-3 2.3-2.6 0-3-.4-3.4-3.3-.2-1.7-.5-2.3-.5-1.3zM1324.7 1451.7c-1.4 1.3-.6 2.4 1.5 2.1 2.7-.4 3.6-2.8 1.1-2.8-1.1 0-2.3.3-2.6.7zM736.5 1454c-.3.5.1 1 .9 1 .9 0 1.6-.5 1.6-1 0-.6-.4-1-.9-1-.6 0-1.3.4-1.6 1zM783.4 1455.5c-2 5.1 6.3 7.4 18.4 4.9 2.7-.5 2.9-3 .3-3.9-1-.3-4.7-.5-8-.4-3.6.1-6.7-.3-7.3-.9-1.6-1.6-2.7-1.5-3.4.3zM1136 1455.8c0 .5.7 1.6 1.6 2.3 1.4 1.2 1.6 1.1 1.3-.5-.4-2-2.9-3.5-2.9-1.8zM1101.1 1463.2c-2.7 1.5-4.9 4.4-3.9 5.3.3.4 1.8-.1 3.3-1.1 2.2-1.4 3.2-1.6 5.6-.7 1.6.6 2.9.7 2.9.2 0-.5.7-.9 1.6-.9.9 0 1.4-.7 1.2-1.8-.4-2.2-7.2-2.8-10.7-1zM1117.5 1464.1c-1 1.5.1 2.3 2 1.5.9-.3 1.3-1 1-1.6-.8-1.3-2.2-1.3-3 .1z"/></svg>